<svg id="svg" version="1.1" xmlns="http://www.w3.org/2000/svg" xmlns:xlink="http://www.w3.org/1999/xlink" width="400" height="400" viewBox="0, 0, 400,400"><g id="svgg"><path id="path0" d="M348.333 27.903 C 348.260 28.070,347.030 28.815,345.600 29.559 C 344.170 30.302,342.460 31.308,341.800 31.793 C 341.140 32.279,339.430 33.298,338.000 34.058 C 336.570 34.818,334.590 35.942,333.600 36.554 C 332.610 37.167,329.883 38.778,327.540 40.134 C 325.197 41.490,322.681 42.960,321.948 43.400 C 321.216 43.840,319.353 44.921,317.808 45.803 C 316.264 46.685,314.370 47.809,313.600 48.302 C 312.830 48.794,312.065 49.198,311.900 49.199 C 311.735 49.199,311.600 53.970,311.600 59.800 C 311.600 65.630,311.739 70.400,311.910 70.400 C 312.080 70.400,313.586 71.179,315.256 72.130 C 317.691 73.518,318.362 73.751,318.646 73.307 C 318.914 72.889,319.391 73.295,320.600 74.971 C 321.705 76.502,322.401 77.125,322.849 76.983 C 323.266 76.852,323.942 77.318,324.742 78.289 C 325.426 79.120,326.260 80.070,326.594 80.400 C 326.928 80.730,328.668 82.481,330.461 84.292 C 332.253 86.103,334.008 87.680,334.360 87.798 C 334.712 87.915,335.501 88.721,336.113 89.588 C 336.725 90.455,337.805 91.574,338.513 92.075 L 339.800 92.987 339.079 91.876 C 337.332 89.182,336.000 86.720,336.000 86.182 C 336.000 84.866,336.946 85.806,339.339 89.500 C 340.728 91.645,342.170 93.651,342.542 93.957 C 344.523 95.586,343.231 92.668,338.486 84.800 C 333.602 76.702,333.004 76.180,330.691 78.000 C 327.142 80.792,323.248 74.435,326.164 70.612 C 327.086 69.402,327.096 69.328,326.388 68.885 C 325.411 68.275,318.400 59.209,318.400 58.556 C 318.400 57.492,319.285 57.593,321.504 58.911 C 322.767 59.661,327.580 62.394,332.200 64.984 C 347.678 73.662,346.400 72.592,346.400 76.876 C 346.400 80.424,346.027 80.690,342.887 79.379 C 341.313 78.722,340.883 78.281,337.395 73.726 C 334.766 70.293,334.413 70.149,330.770 71.035 C 327.329 71.871,326.465 72.818,327.036 75.123 C 327.488 76.945,328.325 77.148,329.904 75.819 C 331.082 74.828,332.920 74.496,333.845 75.106 C 334.532 75.560,343.085 89.242,343.699 90.871 C 343.839 91.240,344.458 91.600,345.076 91.671 C 346.182 91.798,346.203 91.851,346.400 94.946 L 346.600 98.093 348.103 98.690 C 351.343 99.979,362.053 94.198,365.031 89.552 C 366.798 86.795,367.690 81.600,366.396 81.600 C 363.922 81.600,360.963 84.489,361.377 86.499 C 362.193 90.459,362.179 90.545,360.433 92.122 C 357.566 94.713,355.789 93.732,356.250 89.811 C 356.546 87.292,356.066 87.138,354.234 89.163 C 352.530 91.045,352.400 90.523,352.400 81.800 C 352.400 72.353,352.129 73.068,356.656 70.581 C 358.165 69.752,361.101 68.114,363.179 66.941 C 367.221 64.661,367.582 64.669,367.594 67.041 C 367.604 69.042,366.086 70.892,364.021 71.395 C 362.635 71.732,362.138 72.085,361.742 73.013 C 360.264 76.479,361.933 78.209,364.416 75.784 C 366.634 73.619,367.200 74.022,367.200 77.767 L 367.200 80.758 368.300 80.363 C 372.036 79.018,373.577 76.725,372.533 74.065 C 371.716 71.985,372.494 70.026,374.517 69.066 C 376.673 68.043,378.000 68.682,378.000 70.743 L 378.000 72.306 381.813 70.353 C 383.910 69.279,385.980 68.400,386.413 68.400 C 387.174 68.400,387.200 68.082,387.200 58.827 L 387.200 49.254 383.774 47.327 C 381.889 46.267,379.684 44.969,378.874 44.442 C 378.063 43.916,376.230 42.862,374.800 42.102 C 373.370 41.341,371.570 40.316,370.800 39.824 C 369.139 38.763,364.285 35.961,361.200 34.282 C 359.990 33.624,358.100 32.504,357.000 31.794 C 355.900 31.084,354.010 30.007,352.800 29.401 C 351.590 28.794,350.540 28.141,350.467 27.949 C 350.303 27.521,348.518 27.483,348.333 27.903 M162.800 29.115 C 162.800 29.509,163.149 30.515,163.575 31.352 C 164.002 32.188,165.111 35.061,166.039 37.736 C 166.968 40.411,167.853 42.690,168.004 42.800 C 168.156 42.910,168.874 44.800,169.599 47.000 C 170.325 49.200,171.330 51.908,171.833 53.017 C 172.336 54.126,173.388 56.897,174.172 59.173 C 174.955 61.450,175.746 63.513,175.930 63.757 C 176.115 64.000,177.041 66.450,177.990 69.200 C 178.939 71.950,179.855 74.382,180.027 74.604 C 180.198 74.826,180.957 76.806,181.714 79.004 C 182.470 81.202,183.447 83.810,183.886 84.800 C 184.325 85.790,185.374 88.580,186.218 91.000 C 187.063 93.420,187.869 95.490,188.010 95.600 C 188.151 95.710,189.026 98.043,189.955 100.785 C 190.884 103.527,191.800 105.959,191.991 106.189 C 192.182 106.419,192.984 108.496,193.772 110.804 C 194.561 113.112,195.598 115.836,196.077 116.857 L 196.948 118.714 199.974 119.198 C 201.638 119.464,203.180 119.810,203.400 119.966 C 203.620 120.122,204.790 120.481,206.000 120.765 C 207.210 121.048,209.702 121.995,211.537 122.870 C 213.373 123.744,214.966 124.367,215.079 124.255 C 215.326 124.007,212.907 116.523,212.216 115.400 C 211.945 114.960,211.045 112.530,210.216 110.000 C 209.387 107.470,208.487 105.040,208.216 104.600 C 207.945 104.160,206.949 101.460,206.002 98.600 C 205.055 95.740,204.161 93.310,204.016 93.200 C 203.871 93.090,202.969 90.660,202.012 87.800 C 201.055 84.940,200.153 82.510,200.006 82.400 C 199.860 82.290,198.970 79.860,198.027 77.000 C 197.085 74.140,196.169 71.620,195.993 71.400 C 195.816 71.180,194.913 68.750,193.986 66.000 C 193.059 63.250,192.188 60.910,192.051 60.800 C 191.913 60.690,191.011 58.260,190.047 55.400 C 189.083 52.540,188.155 50.020,187.985 49.800 C 187.815 49.580,186.931 47.158,186.020 44.419 C 185.109 41.679,184.218 39.249,184.042 39.019 C 183.865 38.788,182.940 36.305,181.985 33.500 L 180.251 28.400 171.525 28.400 C 163.410 28.400,162.800 28.450,162.800 29.115 M187.233 29.487 C 187.460 30.085,187.789 30.760,187.963 30.987 C 188.137 31.214,189.050 33.650,189.990 36.400 C 190.931 39.150,191.839 41.580,192.009 41.800 C 192.178 42.020,193.055 44.340,193.956 46.957 C 194.858 49.573,195.753 51.913,195.944 52.157 C 196.136 52.400,196.968 54.670,197.792 57.200 C 198.617 59.730,199.511 62.160,199.778 62.600 C 200.045 63.040,201.037 65.650,201.982 68.400 C 202.927 71.150,203.840 73.580,204.011 73.800 C 204.182 74.020,205.081 76.450,206.010 79.200 C 206.938 81.950,207.835 84.380,208.003 84.600 C 208.171 84.820,209.069 87.250,210.000 90.000 C 210.931 92.750,211.827 95.180,211.992 95.400 C 212.158 95.620,213.064 98.140,214.006 101.000 C 214.949 103.860,215.840 106.290,215.986 106.400 C 216.133 106.510,217.015 108.982,217.946 111.892 C 218.877 114.803,219.900 117.683,220.217 118.292 C 220.535 118.902,220.796 119.554,220.798 119.742 C 220.815 122.124,222.951 126.788,224.216 127.205 C 224.977 127.457,225.600 127.806,225.600 127.982 C 225.600 128.159,226.185 128.540,226.900 128.830 C 228.500 129.479,231.987 131.564,232.800 132.358 C 233.130 132.680,234.128 133.406,235.019 133.972 C 236.656 135.012,238.291 136.331,243.110 140.500 C 245.690 142.731,246.400 143.157,246.400 142.470 C 246.400 141.918,244.436 136.328,244.074 135.849 C 243.887 135.602,242.955 133.150,242.002 130.400 C 241.050 127.650,240.146 125.310,239.995 125.200 C 239.843 125.090,239.129 123.200,238.406 121.000 C 237.684 118.800,236.743 116.280,236.315 115.400 C 235.887 114.520,234.815 111.730,233.933 109.200 C 233.051 106.670,232.191 104.420,232.022 104.200 C 231.852 103.980,230.939 101.550,229.993 98.800 C 229.046 96.050,228.155 93.710,228.013 93.600 C 227.870 93.490,226.978 91.150,226.030 88.400 C 225.081 85.650,224.141 83.195,223.940 82.944 C 223.739 82.693,222.852 80.358,221.968 77.755 C 221.085 75.153,220.235 72.928,220.081 72.812 C 219.926 72.695,219.100 70.530,218.245 68.000 C 217.389 65.470,216.474 63.040,216.210 62.600 C 215.946 62.160,215.051 59.820,214.221 57.400 C 213.391 54.980,212.490 52.640,212.217 52.200 C 211.945 51.760,210.954 49.150,210.015 46.400 C 209.076 43.650,208.183 41.310,208.031 41.200 C 207.879 41.090,207.151 39.200,206.413 37.000 C 205.675 34.800,204.613 31.965,204.055 30.700 L 203.038 28.400 194.929 28.400 L 186.820 28.400 187.233 29.487 M105.467 30.667 C 105.320 30.813,105.200 31.168,105.200 31.455 C 105.200 31.742,104.770 32.927,104.244 34.088 C 103.718 35.250,102.610 38.450,101.782 41.200 C 100.954 43.950,100.141 46.291,99.974 46.401 C 99.808 46.512,98.930 49.021,98.022 51.977 C 97.114 54.934,96.214 57.543,96.021 57.776 C 95.829 58.009,94.929 60.619,94.021 63.576 C 93.114 66.533,92.223 69.143,92.041 69.376 C 91.670 69.852,88.400 80.019,88.400 80.697 C 88.400 80.937,88.236 81.193,88.035 81.267 C 87.834 81.340,86.892 83.920,85.940 87.000 C 84.989 90.080,84.091 92.690,83.944 92.800 C 83.797 92.910,82.897 95.520,81.944 98.600 C 80.991 101.680,80.093 104.290,79.948 104.400 C 79.803 104.510,78.924 107.030,77.993 110.000 C 77.063 112.970,76.162 115.580,75.991 115.800 C 75.820 116.020,74.920 118.630,73.991 121.600 C 73.062 124.570,72.162 127.180,71.991 127.400 C 71.820 127.620,70.916 130.230,69.982 133.200 C 69.048 136.170,68.148 138.780,67.982 139.000 C 67.816 139.220,66.916 141.830,65.982 144.800 C 65.048 147.770,64.150 150.380,63.988 150.600 C 63.825 150.820,62.942 153.340,62.025 156.200 C 61.108 159.060,60.118 161.940,59.824 162.600 C 59.531 163.260,58.636 165.870,57.836 168.400 C 57.036 170.930,56.123 173.540,55.806 174.200 C 55.490 174.860,54.590 177.470,53.806 180.000 C 53.023 182.530,52.124 185.140,51.810 185.800 C 51.495 186.460,50.585 189.070,49.787 191.600 C 48.989 194.130,47.991 196.932,47.568 197.826 C 47.146 198.721,46.800 199.635,46.800 199.857 C 46.800 200.538,44.380 207.698,43.566 209.426 C 43.145 210.321,42.800 211.228,42.800 211.443 C 42.800 212.108,40.427 219.355,39.932 220.200 C 39.675 220.640,38.973 222.634,38.372 224.631 C 37.772 226.629,36.781 229.509,36.172 231.031 C 35.562 232.554,34.556 235.487,33.936 237.549 C 33.317 239.611,32.547 241.824,32.226 242.468 C 31.905 243.111,30.895 246.014,29.981 248.919 C 29.068 251.823,28.177 254.380,28.002 254.600 C 27.827 254.820,26.942 257.415,26.035 260.367 C 25.129 263.319,24.228 265.929,24.034 266.167 C 23.840 266.405,23.013 268.760,22.196 271.400 C 21.379 274.040,20.387 276.920,19.992 277.800 C 19.596 278.680,18.598 281.650,17.774 284.400 C 16.949 287.150,16.143 289.490,15.981 289.600 C 15.568 289.881,12.800 298.869,12.800 299.929 C 12.800 300.794,12.851 300.800,20.732 300.800 L 28.664 300.800 29.965 296.500 C 30.680 294.135,31.601 291.480,32.011 290.600 C 32.421 289.720,33.441 286.840,34.278 284.200 C 35.115 281.560,35.916 279.310,36.058 279.200 C 36.199 279.090,37.059 276.639,37.968 273.754 C 38.877 270.869,39.976 267.772,40.410 266.873 C 40.845 265.974,41.200 265.081,41.200 264.888 C 41.200 264.325,43.661 257.039,43.999 256.600 C 44.169 256.380,45.069 253.770,46.000 250.800 C 46.931 247.830,47.832 245.220,48.003 245.000 C 48.173 244.780,49.089 242.170,50.038 239.200 C 50.987 236.230,51.887 233.710,52.039 233.600 C 52.190 233.490,53.093 230.880,54.045 227.800 C 54.996 224.720,55.891 222.110,56.032 222.000 C 56.173 221.890,57.079 219.370,58.045 216.400 C 59.010 213.430,59.916 210.910,60.058 210.800 C 60.199 210.690,61.076 208.170,62.007 205.200 C 62.937 202.230,63.835 199.620,64.003 199.400 C 64.170 199.180,65.077 196.570,66.018 193.600 C 66.959 190.630,67.878 188.004,68.060 187.764 C 68.243 187.524,69.132 185.004,70.038 182.164 C 70.943 179.324,71.827 176.820,72.002 176.600 C 72.177 176.380,73.084 173.770,74.018 170.800 C 74.952 167.830,75.861 165.213,76.036 164.985 C 76.212 164.757,77.108 162.237,78.026 159.385 C 78.945 156.533,79.834 154.020,80.003 153.800 C 80.171 153.580,81.052 151.060,81.960 148.200 C 82.869 145.340,83.784 142.697,83.993 142.327 C 84.354 141.689,84.809 140.354,86.905 133.800 C 87.397 132.260,87.916 130.910,88.058 130.800 C 88.199 130.690,89.076 128.170,90.007 125.200 C 90.937 122.230,91.854 119.604,92.045 119.364 C 92.236 119.124,93.132 116.604,94.038 113.764 C 94.943 110.924,95.827 108.420,96.002 108.200 C 96.177 107.980,97.084 105.370,98.018 102.400 C 98.952 99.430,99.852 96.820,100.017 96.600 C 100.182 96.380,101.042 93.924,101.928 91.142 C 102.815 88.361,103.737 85.751,103.978 85.342 C 104.218 84.934,104.669 83.880,104.979 83.000 C 105.494 81.542,105.546 82.285,105.567 91.400 C 105.591 101.268,105.272 104.263,104.038 105.756 C 103.836 106.000,102.929 108.619,102.021 111.576 C 101.114 114.533,100.220 117.143,100.036 117.376 C 99.851 117.609,98.917 120.230,97.960 123.200 C 97.003 126.170,96.105 128.690,95.964 128.800 C 95.662 129.036,92.400 139.208,92.400 139.915 C 92.400 140.182,92.250 140.400,92.068 140.400 C 91.885 140.400,90.960 142.875,90.012 145.900 C 89.064 148.925,88.143 151.587,87.966 151.815 C 87.789 152.043,86.892 154.563,85.974 157.415 C 85.055 160.267,84.166 162.780,83.998 163.000 C 83.830 163.220,82.927 165.830,81.991 168.800 C 81.055 171.770,80.155 174.380,79.991 174.600 C 79.826 174.820,78.935 177.340,78.009 180.200 C 77.084 183.060,76.179 185.580,75.999 185.800 C 75.819 186.020,74.929 188.619,74.021 191.576 C 73.114 194.533,72.222 197.143,72.038 197.376 C 71.855 197.609,70.956 200.140,70.040 203.000 C 69.124 205.860,68.173 208.557,67.926 208.992 C 67.388 209.943,64.400 219.184,64.400 219.898 C 64.400 220.174,64.250 220.400,64.068 220.400 C 63.885 220.400,62.960 222.875,62.012 225.900 C 61.064 228.925,60.143 231.587,59.966 231.815 C 59.789 232.043,58.892 234.563,57.974 237.415 C 57.055 240.267,56.166 242.780,55.998 243.000 C 55.830 243.220,54.927 245.830,53.991 248.800 C 53.055 251.770,52.154 254.380,51.988 254.600 C 51.822 254.820,50.911 257.430,49.962 260.400 C 49.013 263.370,48.110 265.891,47.954 266.001 C 47.799 266.112,46.930 268.621,46.022 271.577 C 45.114 274.534,44.222 277.143,44.038 277.376 C 43.855 277.609,42.956 280.140,42.040 283.000 C 41.124 285.860,40.183 288.541,39.949 288.957 C 39.341 290.035,36.405 299.261,36.402 300.100 C 36.400 300.744,37.055 300.800,44.563 300.800 L 52.726 300.800 54.163 296.237 C 54.953 293.727,55.600 291.492,55.600 291.270 C 55.600 291.048,55.743 290.807,55.919 290.733 C 56.094 290.660,57.034 288.080,58.008 285.000 C 58.982 281.920,59.889 279.310,60.024 279.200 C 60.158 279.090,61.031 276.570,61.964 273.600 C 62.896 270.630,64.005 267.468,64.429 266.574 C 64.853 265.679,65.200 264.644,65.200 264.274 C 65.200 263.653,66.504 263.600,81.800 263.600 L 98.400 263.600 98.400 255.600 L 98.400 247.600 84.800 247.600 C 77.320 247.600,71.200 247.492,71.200 247.360 C 71.200 247.229,71.466 246.554,71.792 245.860 C 72.118 245.167,72.631 243.880,72.932 243.000 L 73.480 241.400 85.940 241.294 L 98.400 241.189 98.400 233.594 L 98.400 226.000 88.200 226.000 C 82.467 226.000,78.000 225.843,78.000 225.642 C 78.000 225.022,79.669 219.819,80.002 219.400 C 80.177 219.180,81.067 216.570,81.980 213.600 C 82.893 210.630,83.878 207.750,84.167 207.200 C 84.457 206.650,85.383 203.860,86.225 201.000 C 87.067 198.140,87.878 195.710,88.027 195.600 C 88.177 195.490,89.050 192.970,89.967 190.000 C 90.884 187.030,91.873 184.150,92.164 183.600 C 92.455 183.050,93.279 180.620,93.996 178.200 C 94.712 175.780,95.544 173.260,95.845 172.600 C 96.473 171.225,99.676 161.754,102.001 154.400 C 102.871 151.650,103.770 149.040,103.999 148.600 C 104.227 148.160,104.817 146.540,105.308 145.000 L 106.202 142.200 145.201 142.091 C 186.132 141.976,190.227 142.140,192.600 143.987 C 192.820 144.158,194.890 144.875,197.200 145.580 C 199.510 146.285,202.480 147.364,203.800 147.978 C 205.120 148.592,207.550 149.679,209.200 150.393 C 210.850 151.108,212.470 151.922,212.800 152.201 C 213.130 152.480,214.390 153.205,215.600 153.811 C 217.879 154.952,224.259 159.198,225.802 160.600 C 226.286 161.040,228.244 162.748,230.152 164.394 C 232.061 166.041,234.092 168.066,234.665 168.894 C 235.239 169.723,235.859 170.400,236.042 170.400 C 236.225 170.400,236.982 171.348,237.723 172.507 C 238.464 173.666,239.362 174.905,239.718 175.261 C 241.436 176.979,245.554 185.551,246.991 190.400 C 247.349 191.610,247.805 192.899,248.003 193.265 C 250.348 197.594,250.357 225.574,248.014 228.600 C 247.844 228.820,247.476 229.990,247.196 231.200 C 243.671 246.430,232.836 261.952,218.117 272.857 C 216.971 273.706,215.887 274.400,215.708 274.400 C 215.529 274.400,214.756 274.903,213.991 275.517 C 213.226 276.131,211.160 277.345,209.400 278.215 C 207.640 279.084,206.110 279.913,206.000 280.056 C 205.791 280.327,200.135 282.526,198.400 283.010 C 197.850 283.163,196.860 283.527,196.200 283.819 C 192.795 285.323,192.208 285.357,167.500 285.500 L 143.200 285.640 143.200 281.672 L 143.200 277.705 144.700 277.457 C 145.525 277.320,154.786 277.207,165.280 277.204 C 183.343 277.200,187.089 277.014,189.400 276.002 C 189.840 275.810,192.270 275.094,194.800 274.412 C 197.330 273.729,200.300 272.738,201.400 272.209 C 202.500 271.680,204.929 270.591,206.798 269.789 C 208.666 268.987,210.286 268.202,210.398 268.044 C 210.509 267.886,211.410 267.342,212.400 266.836 C 213.390 266.329,214.920 265.426,215.800 264.828 C 220.852 261.397,222.400 260.254,222.400 259.959 C 222.400 259.777,223.031 259.200,223.802 258.676 C 225.073 257.813,228.697 253.944,231.800 250.140 C 234.331 247.036,237.791 240.637,239.052 236.727 C 239.430 235.557,239.889 234.498,240.074 234.374 C 241.571 233.362,243.439 217.794,243.069 209.400 C 242.635 199.569,239.334 186.841,236.169 182.800 C 235.911 182.470,235.182 181.285,234.550 180.166 C 231.912 175.499,224.845 167.709,220.635 164.828 C 220.176 164.514,219.234 163.771,218.542 163.177 C 217.850 162.584,216.455 161.684,215.442 161.178 C 214.429 160.672,213.600 160.135,213.600 159.984 C 213.600 159.565,202.494 154.183,200.000 153.394 C 198.790 153.011,197.029 152.354,196.087 151.933 C 189.944 149.190,183.373 148.814,141.500 148.806 L 105.600 148.800 105.600 187.534 C 105.600 208.837,105.480 243.037,105.334 263.534 L 105.068 300.800 112.526 300.800 L 119.985 300.800 120.250 299.745 C 120.395 299.164,120.399 287.329,120.257 273.445 C 120.115 259.560,119.883 229.075,119.742 205.700 L 119.484 163.200 123.142 163.200 L 126.800 163.200 126.800 232.019 L 126.800 300.838 156.939 300.719 C 178.414 300.634,187.239 300.471,187.639 300.152 C 187.947 299.906,188.920 299.581,189.800 299.430 C 193.687 298.765,202.026 296.504,202.400 296.014 C 202.510 295.870,203.860 295.339,205.400 294.834 C 207.842 294.032,210.554 292.837,217.000 289.719 C 218.880 288.810,226.227 284.571,226.921 283.995 C 227.185 283.776,228.390 282.937,229.600 282.131 C 239.319 275.652,250.647 263.764,254.690 255.800 C 255.248 254.700,255.837 253.710,255.999 253.600 C 256.445 253.296,257.894 250.316,258.858 247.718 C 259.332 246.443,259.851 245.310,260.013 245.200 C 260.483 244.881,262.304 238.777,263.079 234.929 C 263.469 232.988,263.906 231.310,264.049 231.200 C 265.796 229.859,265.745 201.418,263.989 198.025 C 263.812 197.681,263.351 195.780,262.966 193.800 C 261.775 187.676,258.342 178.395,255.650 174.020 C 254.963 172.902,254.400 171.851,254.400 171.684 C 254.400 170.801,247.929 161.844,244.912 158.550 C 244.204 157.777,243.145 156.572,242.559 155.872 C 241.562 154.681,237.168 150.600,234.000 147.923 C 231.682 145.964,226.815 142.442,224.848 141.300 C 223.831 140.710,222.804 140.041,222.564 139.814 C 222.324 139.586,220.706 138.680,218.968 137.800 C 217.229 136.920,215.586 135.994,215.317 135.742 C 215.047 135.490,213.065 134.591,210.913 133.746 C 208.761 132.900,206.941 132.073,206.868 131.908 C 206.714 131.558,198.644 128.955,196.478 128.556 C 195.665 128.407,194.908 128.144,194.795 127.972 C 194.003 126.766,187.188 126.403,165.300 126.401 L 143.200 126.400 143.200 78.400 L 143.200 30.400 135.000 30.400 L 126.800 30.400 126.800 78.400 L 126.800 126.400 124.200 126.400 L 121.600 126.400 121.600 78.400 L 121.600 30.400 113.667 30.400 C 109.303 30.400,105.613 30.520,105.467 30.667 M351.800 37.133 C 352.900 37.748,357.310 40.292,361.600 42.786 C 365.890 45.280,370.840 48.120,372.600 49.098 C 377.910 52.046,378.493 51.083,367.800 57.017 C 364.720 58.726,359.360 61.716,355.890 63.662 C 352.419 65.608,349.474 67.200,349.346 67.200 C 349.137 67.200,344.431 64.572,337.200 60.417 C 335.770 59.595,332.890 57.971,330.800 56.808 C 321.972 51.895,321.972 51.895,322.719 51.372 C 323.097 51.107,324.934 50.000,326.803 48.911 C 328.671 47.821,331.820 45.977,333.800 44.812 C 350.992 34.699,348.981 35.557,351.800 37.133 M343.845 42.242 C 332.024 44.377,329.401 52.129,338.468 58.134 C 345.684 62.913,362.357 60.169,364.805 53.799 C 368.025 45.424,357.711 39.737,343.845 42.242 M351.542 45.470 C 351.294 45.769,349.900 46.641,348.445 47.408 C 346.990 48.174,345.273 49.223,344.630 49.739 L 343.460 50.677 345.566 53.826 C 346.725 55.558,347.506 57.031,347.303 57.099 C 346.376 57.408,337.400 51.712,337.282 50.740 C 337.136 49.545,339.580 48.000,341.616 48.000 C 342.379 48.000,344.021 47.386,345.562 46.524 C 350.082 43.996,350.012 44.022,351.047 44.494 C 351.786 44.831,351.895 45.045,351.542 45.470 M357.790 47.736 C 360.614 51.487,360.788 51.033,355.178 54.565 C 348.967 58.475,348.715 58.429,345.515 52.800 C 344.263 50.597,344.380 50.234,346.737 49.002 C 347.762 48.466,349.680 47.312,351.000 46.436 C 354.533 44.091,355.134 44.206,357.790 47.736 M352.799 48.402 C 351.825 49.769,351.082 52.000,351.600 52.000 C 351.789 52.000,352.035 51.595,352.145 51.100 C 352.256 50.605,352.304 50.875,352.253 51.700 C 352.143 53.484,352.128 53.474,352.984 52.168 C 353.591 51.241,354.285 47.200,353.836 47.200 C 353.736 47.200,353.269 47.741,352.799 48.402 M315.594 95.982 C 316.141 96.402,316.680 96.653,316.793 96.540 C 317.048 96.285,315.602 95.197,315.024 95.209 C 314.791 95.214,315.047 95.561,315.594 95.982 M376.500 99.288 C 376.005 99.527,375.600 99.879,375.600 100.070 C 375.600 100.262,376.050 100.124,376.600 99.763 C 378.067 98.802,378.016 98.557,376.500 99.288 M372.700 101.627 C 371.875 102.063,371.200 102.508,371.200 102.618 C 371.200 102.727,371.920 102.449,372.800 102.000 C 373.680 101.551,374.400 101.097,374.400 100.992 C 374.400 100.730,374.397 100.731,372.700 101.627 M327.200 102.579 C 327.200 102.689,327.740 103.059,328.400 103.400 C 329.060 103.741,329.600 103.931,329.600 103.821 C 329.600 103.711,329.060 103.341,328.400 103.000 C 327.740 102.659,327.200 102.469,327.200 102.579 M335.800 107.764 C 337.048 108.812,337.600 109.029,337.600 108.474 C 337.600 108.295,336.925 107.835,336.100 107.453 L 334.600 106.757 335.800 107.764 M340.800 110.567 C 340.800 110.652,341.430 111.093,342.200 111.547 C 342.970 112.001,343.600 112.232,343.600 112.061 C 343.600 111.889,342.970 111.448,342.200 111.081 C 341.430 110.713,340.800 110.482,340.800 110.567 M344.000 112.374 C 344.000 112.597,344.585 113.063,345.300 113.409 C 346.393 113.939,346.473 113.942,345.800 113.433 C 345.360 113.100,344.775 112.634,344.500 112.398 C 344.178 112.121,344.000 112.113,344.000 112.374 M329.179 125.900 C 328.692 127.385,328.142 128.793,327.957 129.029 C 327.772 129.265,326.875 131.695,325.965 134.429 C 325.055 137.163,324.166 139.580,323.991 139.800 C 323.815 140.020,322.915 142.450,321.990 145.200 C 321.066 147.950,320.167 150.380,319.994 150.600 C 319.820 150.820,318.915 153.250,317.981 156.000 C 317.048 158.750,316.072 161.360,315.813 161.800 C 315.554 162.240,314.635 164.760,313.771 167.400 C 312.907 170.040,312.088 172.290,311.950 172.400 C 311.813 172.510,310.937 174.850,310.004 177.600 C 309.071 180.350,308.171 182.780,308.003 183.000 C 307.835 183.220,306.938 185.650,306.010 188.400 C 305.081 191.150,304.183 193.580,304.014 193.800 C 303.845 194.020,302.917 196.540,301.953 199.400 C 300.989 202.260,300.090 204.690,299.956 204.800 C 299.821 204.910,298.939 207.250,297.996 210.000 C 297.052 212.750,296.149 215.180,295.989 215.400 C 295.829 215.620,294.938 218.050,294.010 220.800 C 293.081 223.550,292.185 225.980,292.017 226.200 C 291.850 226.420,290.923 228.940,289.957 231.800 C 288.991 234.660,288.092 237.090,287.959 237.200 C 287.827 237.310,287.023 239.425,286.174 241.900 C 284.296 247.374,284.146 247.398,282.450 242.499 C 281.707 240.355,280.797 238.060,280.427 237.400 C 280.056 236.740,278.966 234.040,278.005 231.400 C 277.043 228.760,276.125 226.546,275.966 226.479 C 275.807 226.413,275.440 225.558,275.151 224.579 C 274.413 222.082,273.600 222.250,273.598 224.900 C 273.597 227.367,272.559 234.247,272.015 235.400 C 271.808 235.840,271.259 237.514,270.796 239.121 C 269.753 242.738,268.607 245.450,267.767 246.291 C 267.109 246.948,267.237 249.122,267.959 249.580 C 268.150 249.701,268.584 250.610,268.924 251.600 C 270.175 255.247,271.674 258.999,271.958 259.197 C 272.119 259.309,272.674 260.570,273.192 262.000 C 273.709 263.430,274.616 265.635,275.207 266.900 C 275.798 268.165,276.156 269.200,276.002 269.200 C 275.849 269.200,275.044 271.188,274.212 273.617 C 272.391 278.937,272.250 278.928,270.387 273.376 C 269.579 270.969,268.558 268.190,268.117 267.200 C 267.676 266.210,266.632 263.375,265.796 260.900 C 264.960 258.425,264.124 256.400,263.938 256.400 C 263.752 256.400,263.600 256.130,263.600 255.800 C 263.600 254.498,262.867 255.325,261.803 257.829 C 261.188 259.274,260.477 260.669,260.221 260.929 C 259.965 261.188,259.007 262.480,258.092 263.800 C 257.177 265.120,255.522 267.099,254.414 268.198 C 253.306 269.297,252.400 270.393,252.400 270.634 C 252.400 271.285,254.733 277.956,255.606 279.800 C 256.022 280.680,257.099 283.460,257.998 285.979 C 258.897 288.497,259.781 290.747,259.963 290.979 C 260.145 291.210,260.794 292.888,261.405 294.707 L 262.516 298.013 272.541 297.907 L 282.565 297.800 283.070 296.056 C 283.347 295.097,283.739 294.107,283.941 293.856 C 284.143 293.605,285.093 291.060,286.052 288.200 C 287.012 285.340,287.903 282.910,288.031 282.800 C 288.160 282.690,289.021 280.350,289.944 277.600 C 290.868 274.850,291.864 272.150,292.159 271.600 C 292.453 271.050,293.281 268.800,293.998 266.600 C 294.715 264.400,295.702 261.700,296.192 260.600 C 296.681 259.500,297.673 256.800,298.394 254.600 C 299.116 252.400,299.854 250.412,300.034 250.183 C 300.213 249.954,301.111 247.524,302.029 244.783 C 302.946 242.042,303.835 239.620,304.003 239.400 C 304.171 239.180,305.069 236.750,306.000 234.000 C 306.931 231.250,307.832 228.820,308.003 228.600 C 308.174 228.380,309.085 225.860,310.027 223.000 C 310.970 220.140,311.862 217.710,312.011 217.600 C 312.159 217.490,313.055 215.060,314.002 212.200 C 314.949 209.340,315.945 206.640,316.216 206.200 C 316.487 205.760,317.387 203.330,318.216 200.800 C 319.045 198.270,319.945 195.840,320.216 195.400 C 320.487 194.960,321.383 192.530,322.208 190.000 C 323.032 187.470,323.841 185.220,324.005 185.000 C 324.168 184.780,325.062 182.350,325.990 179.600 C 326.919 176.850,327.817 174.420,327.986 174.200 C 328.155 173.980,329.075 171.460,330.030 168.600 C 330.985 165.740,331.883 163.310,332.024 163.200 C 332.165 163.090,333.055 160.660,334.002 157.800 C 334.949 154.940,335.945 152.240,336.216 151.800 C 336.487 151.360,337.383 148.930,338.208 146.400 C 339.032 143.870,339.855 141.612,340.035 141.381 C 340.216 141.151,341.109 138.721,342.020 135.981 C 342.931 133.242,343.821 130.820,343.997 130.600 C 344.609 129.837,346.447 123.999,346.200 123.601 C 346.049 123.355,342.881 123.200,338.009 123.200 L 330.065 123.200 329.179 125.900 M353.190 124.226 C 352.976 124.790,352.800 125.378,352.800 125.532 C 352.800 125.686,352.467 126.439,352.060 127.206 C 351.653 127.973,350.639 130.670,349.807 133.200 C 348.974 135.730,348.155 137.980,347.986 138.200 C 347.817 138.420,346.906 140.940,345.962 143.800 C 345.017 146.660,344.126 149.090,343.982 149.200 C 343.838 149.310,342.945 151.740,341.998 154.600 C 341.051 157.460,340.053 160.160,339.780 160.600 C 339.507 161.040,338.618 163.470,337.803 166.000 C 336.989 168.530,336.181 170.780,336.008 171.000 C 335.835 171.220,334.918 173.740,333.972 176.600 C 333.025 179.460,332.131 181.890,331.985 182.000 C 331.839 182.110,330.949 184.540,330.006 187.400 C 329.064 190.260,328.141 192.793,327.956 193.029 C 327.771 193.265,326.875 195.695,325.965 198.429 C 325.055 201.163,324.175 203.580,324.009 203.800 C 323.843 204.020,323.030 206.270,322.203 208.800 C 321.375 211.330,320.294 214.301,319.799 215.403 C 319.305 216.504,318.325 219.201,317.622 221.396 C 316.919 223.590,316.200 225.569,316.025 225.793 C 315.850 226.017,314.925 228.540,313.970 231.400 C 313.015 234.260,312.117 236.690,311.976 236.800 C 311.835 236.910,310.949 239.340,310.006 242.200 C 309.064 245.060,308.153 247.580,307.982 247.800 C 307.811 248.020,306.915 250.450,305.990 253.200 C 305.066 255.950,304.174 258.380,304.008 258.600 C 303.843 258.820,302.935 261.340,301.992 264.200 C 301.048 267.060,300.055 269.760,299.784 270.200 C 299.513 270.640,298.617 273.070,297.792 275.600 C 296.968 278.130,296.154 280.380,295.984 280.600 C 295.814 280.820,294.950 283.160,294.064 285.800 C 293.178 288.440,291.990 291.712,291.423 293.071 C 290.856 294.430,290.281 296.095,290.146 296.771 L 289.900 298.000 298.135 298.000 L 306.369 298.000 306.817 296.300 C 307.064 295.365,307.494 294.240,307.774 293.800 C 308.054 293.360,309.065 290.660,310.021 287.800 C 310.976 284.940,311.874 282.510,312.015 282.400 C 312.157 282.290,313.061 279.860,314.024 277.000 C 314.988 274.140,315.890 271.710,316.030 271.600 C 316.170 271.490,317.044 269.152,317.972 266.405 C 318.900 263.657,319.804 261.227,319.981 261.005 C 320.158 260.782,321.062 258.350,321.990 255.600 C 322.919 252.850,323.817 250.420,323.986 250.200 C 324.155 249.980,325.083 247.460,326.047 244.600 C 327.011 241.740,327.912 239.310,328.050 239.200 C 328.187 239.090,329.063 236.750,329.996 234.000 C 330.929 231.250,331.833 228.820,332.006 228.600 C 332.179 228.380,333.085 225.950,334.020 223.200 C 334.954 220.450,335.851 218.020,336.012 217.800 C 336.174 217.580,337.080 215.150,338.027 212.400 C 338.974 209.650,339.966 207.040,340.232 206.600 C 340.498 206.160,341.291 204.000,341.995 201.800 C 342.698 199.600,343.681 196.900,344.178 195.800 C 344.675 194.700,345.581 192.270,346.192 190.400 C 346.802 188.530,347.702 186.100,348.192 185.000 C 348.681 183.900,349.673 181.200,350.394 179.000 C 351.116 176.800,351.851 174.816,352.027 174.591 C 352.203 174.366,353.077 172.026,353.968 169.391 C 354.860 166.756,355.838 164.150,356.142 163.600 C 356.446 163.050,357.376 160.530,358.209 158.000 C 359.042 155.470,359.945 153.040,360.216 152.600 C 360.487 152.160,361.386 149.730,362.214 147.200 C 363.042 144.670,363.842 142.510,363.991 142.400 C 364.141 142.290,365.046 139.860,366.001 137.000 C 366.957 134.140,367.881 131.611,368.053 131.379 C 368.684 130.533,370.824 123.963,370.592 123.587 C 370.450 123.357,366.943 123.200,361.966 123.200 L 353.580 123.200 353.190 124.226 M180.174 160.443 C 179.983 160.751,180.281 160.802,181.150 160.611 C 181.983 160.428,182.400 160.489,182.400 160.795 C 182.400 161.072,182.717 161.153,183.200 161.000 C 183.677 160.849,184.000 160.928,184.000 161.197 C 184.000 161.444,184.188 161.531,184.418 161.389 C 184.647 161.247,185.097 161.349,185.418 161.615 C 185.738 161.880,186.000 161.964,186.000 161.800 C 186.000 161.636,186.225 161.680,186.500 161.897 C 186.775 162.114,188.260 162.685,189.800 163.166 C 192.929 164.143,200.000 167.536,200.000 168.061 C 200.000 168.247,200.135 168.357,200.300 168.305 C 200.789 168.150,203.200 169.267,203.200 169.649 C 203.200 169.842,203.388 170.000,203.617 170.000 C 203.846 170.000,204.251 170.185,204.517 170.411 C 204.783 170.636,205.900 171.391,207.000 172.087 C 209.480 173.658,219.343 183.445,219.002 183.997 C 218.865 184.218,218.921 184.400,219.127 184.400 C 220.282 184.400,225.600 195.858,225.600 198.347 C 225.600 198.790,225.772 199.259,225.983 199.389 C 226.193 199.519,226.263 199.892,226.138 200.218 C 226.013 200.544,226.126 201.069,226.388 201.386 C 226.651 201.703,226.750 202.329,226.607 202.777 C 226.465 203.226,226.473 203.795,226.626 204.043 C 227.065 204.752,227.128 219.200,226.693 219.200 C 226.484 219.200,226.430 219.667,226.574 220.238 C 226.717 220.809,226.640 221.510,226.403 221.796 C 226.166 222.082,226.007 222.470,226.049 222.658 C 226.092 222.846,226.028 223.270,225.908 223.600 C 225.787 223.930,225.197 225.775,224.597 227.700 C 223.997 229.625,223.336 231.200,223.129 231.200 C 222.922 231.200,222.864 231.380,223.000 231.600 C 223.136 231.820,223.046 232.000,222.800 232.000 C 222.554 232.000,222.464 232.180,222.600 232.400 C 222.736 232.620,222.627 232.800,222.357 232.800 C 222.087 232.800,221.977 232.910,222.111 233.045 C 222.391 233.324,219.427 238.234,218.325 239.318 C 217.923 239.713,217.306 240.476,216.954 241.015 C 216.601 241.553,216.124 241.877,215.894 241.735 C 215.648 241.582,215.596 241.670,215.768 241.948 C 215.941 242.228,215.505 242.947,214.700 243.710 C 212.130 246.149,210.197 247.825,208.600 248.999 C 207.720 249.646,206.651 250.496,206.225 250.888 C 205.493 251.560,204.993 251.757,204.300 251.647 C 204.135 251.621,204.000 251.763,204.000 251.962 C 204.000 252.377,200.354 254.624,199.900 254.489 C 199.735 254.440,199.600 254.551,199.600 254.736 C 199.600 255.206,197.619 256.059,197.170 255.781 C 196.967 255.656,196.800 255.710,196.800 255.902 C 196.800 256.319,194.223 257.600,193.386 257.600 C 193.064 257.600,192.800 257.802,192.800 258.049 C 192.800 258.342,192.564 258.307,192.123 257.949 C 191.661 257.574,191.542 257.559,191.747 257.901 C 192.092 258.474,190.194 259.360,189.331 259.029 C 189.039 258.917,188.800 259.020,188.800 259.259 C 188.800 259.498,188.440 259.599,188.000 259.484 C 187.560 259.369,187.200 259.462,187.200 259.690 C 187.200 259.941,186.646 260.015,185.800 259.877 C 185.030 259.753,184.400 259.819,184.400 260.025 C 184.400 260.253,176.270 260.400,163.600 260.400 L 142.800 260.400 142.800 210.200 L 142.800 160.000 161.624 160.000 C 175.283 160.000,180.372 160.121,180.174 160.443 M143.890 307.844 C 143.730 308.003,143.600 321.963,143.600 338.867 L 143.600 369.600 147.197 369.600 L 150.793 369.600 150.897 347.500 L 151.000 325.400 154.600 329.160 C 156.580 331.229,159.820 334.583,161.800 336.615 C 163.780 338.647,168.100 343.161,171.400 346.646 C 174.700 350.132,179.749 355.417,182.620 358.392 C 185.490 361.366,189.585 365.611,191.720 367.824 C 193.854 370.037,195.600 372.062,195.600 372.324 C 195.600 372.586,195.870 372.800,196.200 372.800 C 196.728 372.800,196.800 369.067,196.800 341.600 L 196.800 310.400 193.200 310.400 L 189.600 310.400 189.600 332.694 L 189.600 354.987 185.982 351.194 C 183.992 349.107,178.997 343.893,174.882 339.606 C 170.767 335.320,165.592 329.920,163.382 327.606 C 161.173 325.293,157.121 321.060,154.379 318.200 C 151.637 315.340,148.221 311.775,146.787 310.277 C 145.353 308.779,144.049 307.684,143.890 307.844 M40.987 309.627 C 11.024 311.971,2.737 353.942,29.601 367.287 C 37.386 371.154,53.594 371.592,56.800 368.023 C 56.910 367.900,58.215 367.195,59.700 366.456 L 62.400 365.113 62.400 360.556 C 62.400 358.050,62.265 356.013,62.100 356.029 C 61.935 356.045,60.630 356.947,59.200 358.034 C 51.562 363.838,42.480 364.932,33.800 361.093 C 32.700 360.606,31.693 360.061,31.562 359.881 C 31.431 359.700,30.407 358.888,29.287 358.076 C 16.356 348.702,19.304 325.350,34.257 318.707 C 41.004 315.709,53.301 316.413,56.400 319.975 C 56.838 320.478,61.236 323.639,61.799 323.855 C 62.770 324.228,62.676 315.559,61.700 314.727 C 57.293 310.971,49.220 308.983,40.987 309.627 M97.973 309.637 C 94.670 309.912,89.000 311.305,88.731 311.908 C 88.659 312.069,87.456 312.737,86.057 313.394 C 84.658 314.051,83.122 314.951,82.642 315.394 C 82.163 315.837,81.027 316.789,80.117 317.509 C 79.207 318.229,77.953 319.624,77.331 320.608 C 76.709 321.593,76.068 322.399,75.906 322.399 C 75.572 322.400,73.200 326.954,73.200 327.593 C 73.200 327.822,72.847 328.772,72.415 329.704 C 70.149 334.595,70.149 345.405,72.415 350.296 C 72.847 351.228,73.200 352.178,73.200 352.407 C 73.200 353.046,75.572 357.600,75.906 357.601 C 76.068 357.601,76.709 358.407,77.331 359.392 C 77.953 360.376,79.207 361.771,80.117 362.491 C 81.027 363.211,82.167 364.160,82.651 364.600 C 87.919 369.394,99.918 371.729,109.400 369.806 C 113.583 368.958,119.575 366.041,122.000 363.673 C 122.550 363.136,123.418 362.420,123.929 362.083 C 124.764 361.532,126.935 358.703,128.934 355.563 C 129.816 354.178,131.600 349.367,131.600 348.375 C 131.600 347.985,131.825 347.592,132.100 347.500 C 132.476 347.375,132.600 345.511,132.600 340.000 C 132.600 334.489,132.476 332.625,132.100 332.500 C 131.825 332.408,131.600 332.015,131.600 331.625 C 131.600 330.633,129.816 325.822,128.934 324.437 C 126.935 321.297,124.764 318.468,123.929 317.917 C 123.418 317.580,122.550 316.864,122.000 316.327 C 120.727 315.084,117.129 312.898,115.811 312.567 C 115.255 312.427,114.800 312.160,114.800 311.972 C 114.800 310.607,104.117 309.125,97.973 309.637 M225.000 309.638 C 219.347 310.207,215.040 313.169,212.608 318.157 C 211.304 320.832,211.200 321.321,211.200 324.783 C 211.200 332.896,214.327 335.931,229.600 342.640 C 231.030 343.268,232.380 343.925,232.600 344.100 C 232.820 344.275,233.866 345.077,234.925 345.882 C 240.693 350.268,238.200 360.784,230.909 362.825 C 225.107 364.450,220.092 362.727,217.329 358.161 C 216.410 356.643,215.643 355.130,215.623 354.800 C 215.525 353.143,215.027 353.017,211.632 353.793 C 207.925 354.639,207.872 354.739,209.156 358.472 C 210.706 362.977,214.053 366.997,217.838 368.899 C 226.149 373.076,238.708 369.700,243.139 362.100 C 246.060 357.088,246.677 347.534,244.238 345.095 C 243.945 344.802,243.583 344.176,243.433 343.703 C 242.640 341.207,236.335 337.182,227.733 333.681 C 218.739 330.021,216.048 324.818,220.517 319.728 C 224.953 314.675,233.168 315.776,237.220 321.967 L 237.841 322.915 239.820 321.810 C 240.909 321.203,242.219 320.288,242.731 319.777 L 243.662 318.848 242.601 317.037 C 239.293 311.393,233.163 308.816,225.000 309.638 M366.800 309.642 C 357.714 310.679,352.833 316.597,353.276 326.040 C 353.589 332.725,355.712 335.145,365.337 339.789 C 368.770 341.445,371.733 342.800,371.921 342.800 C 372.422 342.800,376.018 345.171,377.333 346.368 C 379.557 348.394,380.366 352.644,379.206 356.201 C 375.910 366.305,360.783 365.721,357.775 355.373 C 357.051 352.882,357.079 352.891,352.900 353.868 C 349.090 354.759,349.079 356.091,352.835 362.412 C 357.402 370.100,371.948 373.499,378.400 368.385 C 378.950 367.950,379.771 367.432,380.224 367.235 C 382.548 366.227,386.800 359.857,386.800 357.385 C 386.800 357.063,386.980 356.800,387.200 356.800 C 387.442 356.800,387.600 355.067,387.600 352.400 C 387.600 349.980,387.440 348.000,387.245 348.000 C 387.049 348.000,386.778 347.415,386.643 346.700 C 386.056 343.600,382.156 339.573,377.772 337.540 C 376.247 336.833,374.910 336.139,374.800 335.997 C 374.690 335.856,372.890 335.058,370.800 334.225 C 361.271 330.427,358.662 326.618,361.606 320.800 C 364.431 315.219,374.593 315.201,378.021 320.772 C 379.541 323.242,379.554 323.243,382.877 320.974 C 385.910 318.904,385.909 318.909,383.493 315.800 C 379.577 310.762,374.239 308.793,366.800 309.642 M257.200 340.000 L 257.200 370.009 272.700 369.905 L 288.200 369.800 288.316 366.300 L 288.431 362.800 276.416 362.800 L 264.400 362.800 264.400 351.800 L 264.400 340.800 276.000 340.800 L 287.600 340.800 287.600 337.400 L 287.600 334.000 276.000 334.000 L 264.400 334.000 264.400 325.600 L 264.400 317.200 276.416 317.200 L 288.431 317.200 288.316 313.700 L 288.200 310.200 272.700 310.095 L 257.200 309.991 257.200 340.000 M299.600 340.000 L 299.600 369.600 303.200 369.600 L 306.800 369.600 306.800 340.000 L 306.800 310.400 303.200 310.400 L 299.600 310.400 299.600 340.000 M321.600 340.206 L 321.600 370.012 333.300 369.906 L 345.000 369.800 345.116 366.300 L 345.231 362.800 337.016 362.800 L 328.800 362.800 328.800 336.600 L 328.800 310.400 325.200 310.400 L 321.600 310.400 321.600 340.206 M105.000 316.809 C 116.674 318.449,125.196 328.234,125.196 340.000 C 125.196 358.783,103.763 370.063,88.515 359.305 C 69.823 346.117,78.389 317.632,101.400 316.457 C 101.840 316.434,103.460 316.593,105.000 316.809 " stroke="none" fill="#0c4c8b" fill-rule="evenodd"></path><path id="path1" d="M348.180 36.761 C 347.866 37.060,330.468 47.301,324.500 50.700 C 322.378 51.909,322.055 51.479,327.300 54.425 C 329.775 55.815,334.860 58.689,338.600 60.811 C 342.340 62.933,346.307 65.156,347.415 65.752 L 349.430 66.835 362.870 59.339 L 376.310 51.843 370.855 48.681 C 348.268 35.589,349.005 35.977,348.180 36.761 M356.616 41.817 C 366.742 44.437,369.091 54.462,360.471 58.274 C 348.606 63.521,335.005 60.587,332.773 52.299 C 330.785 44.917,344.795 38.758,356.616 41.817 M346.810 46.220 C 344.883 47.367,343.348 48.000,342.494 48.000 C 340.257 48.000,336.881 50.071,337.523 51.049 C 337.794 51.462,346.607 56.800,347.017 56.800 C 347.131 56.800,346.292 55.419,345.153 53.731 L 343.082 50.661 344.297 49.631 C 344.965 49.064,346.908 47.817,348.615 46.860 C 350.901 45.579,351.571 45.027,351.159 44.766 C 350.296 44.220,350.009 44.316,346.810 46.220 M349.500 47.712 C 344.021 51.056,344.268 50.448,346.839 54.257 C 349.316 57.929,349.124 57.931,355.165 54.161 C 360.357 50.921,360.179 51.445,357.345 47.745 C 354.631 44.202,355.248 44.204,349.500 47.712 M354.325 48.761 C 354.197 50.536,353.887 51.472,353.077 52.534 C 352.485 53.311,352.000 54.229,352.000 54.573 C 352.000 54.918,351.800 55.200,351.555 55.200 C 350.546 55.200,351.331 49.904,352.608 48.101 C 354.207 45.842,354.528 45.965,354.325 48.761 M319.200 58.940 C 319.200 59.786,325.917 68.320,326.805 68.602 C 327.874 68.941,327.806 69.667,326.600 70.800 C 323.744 73.483,326.962 79.972,330.094 77.846 C 333.151 75.771,333.397 75.905,336.909 81.561 C 338.084 83.453,339.719 86.080,340.544 87.400 C 345.722 95.691,344.604 98.402,339.327 90.349 C 337.888 88.152,336.619 86.448,336.506 86.561 C 336.313 86.754,337.473 88.666,340.654 93.403 C 342.259 95.793,342.331 96.400,341.009 96.400 C 340.196 96.400,339.509 95.641,337.177 92.165 C 335.614 89.836,334.233 88.034,334.107 88.159 C 333.883 88.383,335.625 91.067,338.002 94.159 C 339.447 96.040,339.520 96.800,338.257 96.800 C 337.558 96.800,336.861 96.161,335.557 94.327 C 334.591 92.967,333.396 91.462,332.902 90.983 C 332.408 90.504,331.735 89.349,331.406 88.417 C 331.077 87.484,330.356 86.366,329.804 85.932 C 329.225 85.476,328.800 84.731,328.800 84.171 C 328.800 83.246,328.510 82.869,326.342 80.979 C 325.824 80.527,325.093 79.582,324.719 78.879 C 324.157 77.825,323.798 77.600,322.679 77.600 C 321.479 77.600,321.237 77.412,320.591 75.981 C 319.336 73.197,319.200 73.744,319.200 81.560 L 319.200 89.167 322.300 91.025 C 324.005 92.047,327.920 94.360,331.000 96.163 C 334.080 97.967,338.502 100.558,340.828 101.922 C 343.153 103.285,345.178 104.400,345.328 104.400 C 346.176 104.400,345.595 92.055,344.741 91.928 C 344.104 91.833,342.617 89.729,338.995 83.800 C 333.701 75.133,333.125 74.554,330.967 75.727 C 327.721 77.491,327.966 77.445,327.153 76.441 C 325.310 74.165,326.513 71.897,330.095 70.898 C 334.765 69.595,334.303 69.370,339.095 75.292 C 341.717 78.533,342.695 79.341,344.500 79.760 L 345.600 80.015 345.600 76.508 L 345.599 73.000 343.500 71.845 C 341.045 70.495,337.401 68.449,327.097 62.634 C 318.956 58.040,319.200 58.154,319.200 58.940 M362.400 67.830 C 360.310 69.030,357.377 70.645,355.882 71.419 C 352.519 73.162,352.762 72.326,352.891 81.728 L 353.000 89.634 354.378 88.617 C 356.553 87.011,356.883 87.213,356.573 89.961 C 356.330 92.106,356.383 92.363,357.160 92.779 C 359.240 93.892,362.019 90.975,361.268 88.468 C 360.202 84.912,361.091 83.300,365.100 81.518 L 366.800 80.763 366.800 78.005 C 366.800 74.598,366.367 74.279,364.376 76.224 C 362.972 77.594,362.727 77.695,361.812 77.278 C 359.768 76.347,360.985 71.200,363.249 71.200 C 365.522 71.200,367.568 68.720,367.038 66.608 C 366.713 65.313,366.850 65.276,362.400 67.830 M374.492 69.601 C 372.698 70.694,372.117 72.061,372.727 73.748 C 373.823 76.779,372.947 78.468,369.412 80.142 L 367.200 81.190 367.200 83.971 C 367.200 87.351,367.651 87.737,369.386 85.843 C 370.113 85.049,370.894 84.400,371.121 84.400 C 374.712 84.400,373.944 89.894,370.202 90.982 C 367.709 91.707,367.098 92.502,367.278 94.789 L 367.400 96.348 370.200 94.635 C 371.740 93.693,374.530 92.023,376.400 90.925 L 379.800 88.928 379.909 81.264 C 380.009 74.190,379.819 72.674,379.000 74.000 C 378.068 75.507,377.127 74.353,377.396 72.033 C 377.642 69.912,377.587 69.621,376.862 69.233 C 375.847 68.690,376.032 68.662,374.492 69.601 M324.472 79.798 C 325.253 81.513,322.991 83.231,321.680 81.920 C 320.936 81.176,321.111 80.108,322.089 79.423 C 323.337 78.549,323.946 78.645,324.472 79.798 M327.676 83.008 C 328.235 84.233,326.483 86.400,324.933 86.400 C 323.326 86.400,323.235 84.570,324.773 83.166 C 326.339 81.735,327.078 81.695,327.676 83.008 M330.400 88.033 C 330.400 89.567,327.515 90.955,326.480 89.920 C 325.135 88.575,328.256 85.384,329.667 86.660 C 330.070 87.025,330.400 87.643,330.400 88.033 M332.027 91.250 C 333.095 93.245,330.252 95.032,329.054 93.118 C 328.718 92.582,328.831 92.218,329.583 91.418 C 330.749 90.177,331.428 90.130,332.027 91.250 M334.487 93.900 C 335.694 95.285,336.131 96.472,335.563 96.823 C 334.467 97.500,332.420 95.167,332.934 93.827 C 333.247 93.011,333.731 93.034,334.487 93.900 M226.501 215.400 C 226.505 216.280,226.587 216.593,226.683 216.095 C 226.779 215.598,226.775 214.878,226.675 214.495 C 226.575 214.113,226.496 214.520,226.501 215.400 M180.169 260.050 C 180.050 260.243,180.403 260.400,180.953 260.400 C 181.503 260.400,182.050 260.243,182.169 260.050 C 182.288 259.858,181.935 259.700,181.385 259.700 C 180.835 259.700,180.288 259.858,180.169 260.050 " stroke="none" fill="#ebeced" fill-rule="evenodd"></path><path id="path2" d="M382.117 70.184 C 378.098 72.196,376.648 73.413,377.760 73.840 C 378.141 73.986,378.743 73.814,379.156 73.440 C 379.849 72.813,379.893 72.920,380.141 75.852 C 380.592 81.193,380.457 88.655,379.900 89.114 C 379.438 89.495,375.562 91.790,369.862 95.059 C 366.920 96.746,366.800 96.737,366.800 94.831 C 366.800 92.798,368.263 90.990,370.201 90.626 C 371.739 90.338,372.565 89.349,372.996 87.284 C 373.564 84.562,371.427 83.959,369.329 86.250 C 368.245 87.433,367.895 87.611,367.419 87.216 C 366.935 86.814,366.537 87.202,365.049 89.523 C 362.772 93.077,361.721 93.853,355.171 96.818 C 349.432 99.417,349.863 99.353,346.500 98.101 C 346.124 97.961,346.000 98.770,346.000 101.357 C 346.000 103.251,345.903 104.800,345.784 104.800 C 345.346 104.800,342.372 103.157,336.562 99.704 C 333.283 97.756,328.620 95.019,326.200 93.622 C 323.780 92.225,321.125 90.656,320.300 90.135 L 318.800 89.189 318.800 81.856 C 318.800 75.377,318.719 74.452,318.100 73.902 C 317.346 73.231,312.307 70.400,311.867 70.400 C 311.720 70.400,311.600 75.582,311.600 81.916 L 311.600 93.433 313.900 94.571 C 315.165 95.196,316.383 95.930,316.606 96.202 C 316.829 96.473,318.300 97.344,319.876 98.138 C 321.451 98.931,322.856 99.767,322.998 99.997 C 323.139 100.226,323.423 100.309,323.628 100.183 C 323.832 100.056,324.000 100.123,324.000 100.332 C 324.000 100.540,325.440 101.460,327.200 102.376 C 328.960 103.291,330.400 104.211,330.400 104.420 C 330.400 104.629,330.681 104.800,331.024 104.800 C 331.393 104.800,331.531 104.988,331.362 105.262 C 331.200 105.523,331.251 105.616,331.477 105.476 C 331.945 105.187,336.968 107.768,338.057 108.857 C 338.466 109.266,339.081 109.600,339.424 109.600 C 339.767 109.600,339.949 109.760,339.828 109.955 C 339.707 110.150,339.832 110.290,340.104 110.267 C 341.018 110.187,343.600 111.741,343.606 112.374 C 343.611 112.880,343.678 112.896,343.958 112.455 C 344.148 112.155,344.370 112.079,344.452 112.287 C 344.533 112.494,345.686 113.239,347.012 113.941 L 349.425 115.218 351.812 113.937 C 353.126 113.232,354.332 112.463,354.494 112.228 C 354.656 111.993,354.791 111.935,354.794 112.100 C 354.797 112.265,355.174 112.026,355.631 111.569 C 356.088 111.112,356.718 110.836,357.031 110.957 C 357.344 111.077,357.600 111.004,357.600 110.796 C 357.600 110.587,358.365 110.028,359.300 109.554 C 360.235 109.080,361.090 108.578,361.200 108.437 C 361.750 107.734,363.677 106.801,364.073 107.045 C 364.326 107.202,364.414 107.146,364.273 106.918 C 364.135 106.694,364.763 106.177,365.670 105.769 C 366.576 105.360,367.522 104.821,367.772 104.570 C 368.618 103.725,374.265 100.798,374.534 101.067 C 374.680 101.213,374.800 101.023,374.800 100.643 C 374.800 100.263,374.980 100.064,375.200 100.200 C 375.420 100.336,375.600 100.284,375.600 100.085 C 375.600 99.885,376.905 99.041,378.500 98.208 C 380.095 97.376,381.490 96.579,381.600 96.438 C 382.148 95.736,384.077 94.800,384.473 95.045 C 384.721 95.199,384.814 95.146,384.679 94.928 C 384.544 94.710,385.057 94.235,385.817 93.872 L 387.200 93.213 387.200 80.806 C 387.200 66.334,387.704 67.387,382.117 70.184 M321.906 79.883 C 321.435 80.404,321.364 80.792,321.648 81.300 C 322.430 82.697,324.635 81.726,324.329 80.119 C 324.143 79.142,322.704 79.002,321.906 79.883 M324.849 83.348 C 323.805 84.459,323.850 85.722,324.940 85.932 C 325.932 86.123,327.662 84.432,327.517 83.415 C 327.347 82.231,325.932 82.195,324.849 83.348 M328.973 83.800 C 329.122 84.460,329.686 85.331,330.225 85.736 C 330.804 86.170,331.390 87.200,331.654 88.249 C 331.906 89.251,332.436 90.205,332.869 90.437 C 333.290 90.662,334.436 92.097,335.415 93.624 C 336.647 95.545,337.442 96.400,337.997 96.400 C 339.198 96.400,339.032 96.014,336.200 92.215 C 334.770 90.297,333.600 88.423,333.600 88.051 C 333.600 87.679,332.498 86.301,331.151 84.987 C 328.844 82.739,328.717 82.670,328.973 83.800 M327.668 87.275 C 326.297 88.144,326.150 89.031,327.260 89.730 C 328.111 90.266,330.000 89.101,330.000 88.040 C 330.000 86.670,329.093 86.373,327.668 87.275 M329.875 91.517 C 328.979 92.507,329.023 93.090,330.019 93.406 C 331.068 93.739,332.073 92.911,331.919 91.839 C 331.762 90.745,330.722 90.581,329.875 91.517 M337.000 91.200 C 338.938 94.340,340.527 96.400,341.013 96.400 C 341.821 96.400,341.748 95.731,340.792 94.389 C 339.930 93.178,336.378 90.190,337.000 91.200 M333.200 94.330 C 333.200 95.247,334.993 96.975,335.572 96.617 C 335.849 96.446,335.628 95.860,334.954 94.975 C 333.788 93.446,333.200 93.230,333.200 94.330 M120.181 244.800 C 120.181 252.830,120.234 256.115,120.299 252.100 C 120.365 248.085,120.365 241.515,120.299 237.500 C 120.234 233.485,120.181 236.770,120.181 244.800 " stroke="none" fill="#e11e26" fill-rule="evenodd"></path><path id="path3" d="M351.200 52.400 C 351.200 52.620,351.481 52.800,351.824 52.800 C 352.216 52.800,352.336 52.985,352.147 53.300 C 351.943 53.640,352.063 53.624,352.523 53.251 C 352.895 52.949,353.197 52.499,353.194 52.251 C 353.191 52.003,353.013 52.070,352.800 52.400 C 352.542 52.800,352.410 52.833,352.406 52.500 C 352.403 52.225,352.130 52.000,351.800 52.000 C 351.470 52.000,351.200 52.180,351.200 52.400 M367.301 67.000 C 367.305 67.880,367.387 68.193,367.483 67.695 C 367.579 67.198,367.575 66.478,367.475 66.095 C 367.375 65.713,367.296 66.120,367.301 67.000 M346.140 76.800 C 346.140 78.670,346.209 79.435,346.293 78.500 C 346.377 77.565,346.377 76.035,346.293 75.100 C 346.209 74.165,346.140 74.930,346.140 76.800 M352.569 81.800 C 352.570 86.420,352.628 88.255,352.699 85.878 C 352.770 83.501,352.769 79.721,352.698 77.478 C 352.627 75.235,352.569 77.180,352.569 81.800 M331.505 75.083 C 332.002 75.179,332.722 75.175,333.105 75.075 C 333.487 74.975,333.080 74.896,332.200 74.901 C 331.320 74.905,331.007 74.987,331.505 75.083 M380.161 82.800 C 380.161 86.210,380.222 87.605,380.297 85.900 C 380.372 84.195,380.372 81.405,380.297 79.700 C 380.222 77.995,380.161 79.390,380.161 82.800 M326.000 88.649 C 326.000 89.700,328.089 90.826,328.577 90.037 C 328.700 89.838,328.462 89.763,328.047 89.872 C 327.561 89.999,327.064 89.741,326.647 89.145 C 326.291 88.638,326.000 88.414,326.000 88.649 M333.775 91.732 C 334.391 92.539,334.976 93.200,335.075 93.200 C 335.353 93.200,333.621 90.860,333.109 90.544 C 332.859 90.389,333.159 90.924,333.775 91.732 M345.794 98.194 C 345.633 101.626,345.589 104.523,345.697 104.630 C 345.804 104.737,346.022 102.016,346.182 98.582 C 346.341 95.148,346.385 92.252,346.279 92.146 C 346.173 92.040,345.955 94.761,345.794 98.194 M143.000 160.400 C 143.159 160.657,149.796 160.800,161.600 160.800 C 173.404 160.800,180.041 160.657,180.200 160.400 C 180.363 160.135,174.063 160.000,161.600 160.000 C 149.137 160.000,142.837 160.135,143.000 160.400 M193.776 164.998 C 194.204 165.329,194.789 165.600,195.076 165.600 C 195.364 165.600,195.600 165.810,195.600 166.067 C 195.600 166.323,195.714 166.420,195.853 166.281 C 195.992 166.142,196.442 166.208,196.853 166.428 C 197.264 166.648,197.600 166.736,197.600 166.624 C 197.600 166.374,195.594 165.321,194.103 164.789 C 193.071 164.421,193.050 164.434,193.776 164.998 M201.424 168.987 C 201.851 169.310,202.470 169.574,202.800 169.573 C 203.148 169.572,202.980 169.332,202.400 169.000 C 201.085 168.248,200.436 168.240,201.424 168.987 M205.846 171.777 C 205.977 172.117,206.233 172.303,206.415 172.191 C 206.596 172.079,207.028 172.390,207.373 172.882 C 207.718 173.375,208.000 173.617,208.000 173.419 C 208.000 173.222,208.405 173.415,208.900 173.849 C 210.264 175.045,211.200 175.720,211.200 175.508 C 211.200 175.316,207.021 171.987,206.105 171.449 C 205.770 171.253,205.686 171.359,205.846 171.777 M213.600 178.200 C 214.346 178.970,215.047 179.600,215.157 179.600 C 215.267 179.600,214.746 178.970,214.000 178.200 C 213.254 177.430,212.553 176.800,212.443 176.800 C 212.333 176.800,212.854 177.430,213.600 178.200 M217.149 181.800 C 217.810 183.009,218.771 184.163,218.957 183.971 C 219.048 183.877,218.580 183.170,217.917 182.400 C 217.254 181.630,216.909 181.360,217.149 181.800 M222.522 190.400 C 222.772 191.060,223.121 191.600,223.298 191.600 C 223.475 191.600,223.341 191.060,223.000 190.400 C 222.659 189.740,222.310 189.200,222.224 189.200 C 222.139 189.200,222.273 189.740,222.522 190.400 M226.440 204.476 C 226.559 206.046,227.120 207.016,227.160 205.724 C 227.182 205.022,227.020 204.336,226.800 204.200 C 226.580 204.064,226.418 204.188,226.440 204.476 M226.737 217.001 C 226.662 218.211,226.735 219.201,226.900 219.201 C 227.065 219.200,227.200 218.210,227.200 217.000 C 227.200 214.161,226.914 214.161,226.737 217.001 M215.985 241.713 C 215.208 242.329,213.286 245.041,213.892 244.667 C 214.350 244.384,216.978 241.189,216.734 241.213 C 216.660 241.220,216.323 241.445,215.985 241.713 M212.000 245.600 C 211.450 246.030,211.197 246.386,211.438 246.391 C 211.679 246.396,212.202 246.040,212.600 245.600 C 213.512 244.592,213.288 244.592,212.000 245.600 M206.043 250.423 C 205.517 250.861,205.165 251.298,205.261 251.394 C 205.356 251.490,205.950 251.125,206.579 250.584 C 207.209 250.043,207.561 249.606,207.362 249.613 C 207.163 249.621,206.570 249.985,206.043 250.423 M198.012 255.184 C 197.034 255.803,197.727 255.976,198.801 255.381 C 199.380 255.061,199.548 254.825,199.200 254.820 C 198.870 254.816,198.335 254.980,198.012 255.184 M190.500 258.448 C 189.785 258.654,189.200 258.927,189.200 259.055 C 189.200 259.382,191.321 258.820,191.780 258.372 C 192.214 257.947,192.237 257.946,190.500 258.448 " stroke="none" fill="#5c6999" fill-rule="evenodd"></path><path id="path4" d="M350.015 36.715 C 350.777 37.108,352.255 37.935,353.300 38.553 C 354.345 39.171,355.200 39.577,355.200 39.456 C 355.200 39.120,349.733 36.000,349.146 36.000 C 348.863 36.000,349.254 36.322,350.015 36.715 M346.696 37.350 C 344.775 38.531,344.238 39.089,345.800 38.281 C 347.054 37.633,348.745 36.426,348.400 36.425 C 348.290 36.425,347.523 36.841,346.696 37.350 M356.600 40.281 C 356.820 40.508,357.900 41.197,359.000 41.813 C 360.100 42.428,360.820 42.746,360.600 42.519 C 360.380 42.292,359.300 41.603,358.200 40.987 C 357.100 40.372,356.380 40.054,356.600 40.281 M351.000 41.576 C 353.640 41.738,356.340 41.994,357.000 42.144 C 358.160 42.409,358.167 42.403,357.200 41.953 C 356.650 41.696,353.950 41.441,351.200 41.384 L 346.200 41.282 351.000 41.576 M341.400 42.400 C 340.381 42.838,341.432 42.838,342.800 42.400 C 343.604 42.143,343.643 42.077,343.000 42.068 C 342.560 42.062,341.840 42.211,341.400 42.400 M358.433 42.549 C 358.845 42.917,361.200 44.000,361.200 43.821 C 361.200 43.590,358.982 42.400,358.553 42.400 C 358.396 42.400,358.342 42.467,358.433 42.549 M361.200 42.979 C 361.200 43.089,361.740 43.459,362.400 43.800 C 363.060 44.141,363.600 44.331,363.600 44.221 C 363.600 44.111,363.060 43.741,362.400 43.400 C 361.740 43.059,361.200 42.869,361.200 42.979 M332.500 45.642 C 331.345 46.315,330.400 46.958,330.400 47.071 C 330.400 47.293,333.957 45.315,334.580 44.747 C 335.258 44.128,334.642 44.393,332.500 45.642 M364.200 44.681 C 364.420 44.908,365.500 45.597,366.600 46.213 C 367.700 46.828,368.420 47.146,368.200 46.919 C 367.980 46.692,366.900 46.003,365.800 45.387 C 364.700 44.772,363.980 44.454,364.200 44.681 M334.247 46.401 C 333.451 47.282,332.805 48.227,332.812 48.501 C 332.819 48.776,333.023 48.640,333.265 48.200 C 333.507 47.760,334.257 46.815,334.931 46.100 C 335.605 45.385,336.053 44.800,335.925 44.800 C 335.797 44.800,335.042 45.521,334.247 46.401 M368.800 47.341 C 368.800 47.493,371.071 48.854,375.700 51.477 C 375.865 51.571,376.000 51.562,376.000 51.459 C 376.000 51.307,373.729 49.946,369.100 47.323 C 368.935 47.229,368.800 47.238,368.800 47.341 M354.093 49.200 C 354.093 49.970,354.175 50.285,354.276 49.900 C 354.376 49.515,354.376 48.885,354.276 48.500 C 354.175 48.115,354.093 48.430,354.093 49.200 M325.496 49.750 C 323.575 50.931,323.038 51.489,324.600 50.681 C 325.854 50.033,327.545 48.826,327.200 48.825 C 327.090 48.825,326.323 49.241,325.496 49.750 M332.493 50.400 C 332.493 51.170,332.575 51.485,332.676 51.100 C 332.776 50.715,332.776 50.085,332.676 49.700 C 332.575 49.315,332.493 49.630,332.493 50.400 M332.800 52.671 C 332.800 53.780,335.967 57.269,338.200 58.620 C 339.660 59.504,339.170 58.979,336.932 57.263 C 336.015 56.560,334.710 55.147,334.032 54.124 C 333.355 53.100,332.800 52.447,332.800 52.671 M356.500 53.246 C 355.137 54.119,354.695 54.706,355.900 54.043 C 356.818 53.539,358.256 52.427,358.000 52.419 C 357.890 52.416,357.215 52.788,356.500 53.246 M324.400 52.979 C 324.400 53.089,324.940 53.459,325.600 53.800 C 326.260 54.141,326.800 54.331,326.800 54.221 C 326.800 54.111,326.260 53.741,325.600 53.400 C 324.940 53.059,324.400 52.869,324.400 52.979 M351.200 54.000 C 351.200 54.660,351.380 55.200,351.600 55.200 C 351.820 55.200,352.000 54.660,352.000 54.000 C 352.000 53.340,351.820 52.800,351.600 52.800 C 351.380 52.800,351.200 53.340,351.200 54.000 M371.900 54.229 C 370.405 55.040,370.496 55.378,372.000 54.600 C 372.660 54.259,373.200 53.894,373.200 53.790 C 373.200 53.532,373.157 53.547,371.900 54.229 M363.230 56.168 C 362.730 56.700,361.793 57.354,361.148 57.622 C 360.502 57.889,360.053 58.187,360.150 58.283 C 360.451 58.584,362.553 57.327,363.570 56.238 C 364.103 55.667,364.449 55.200,364.339 55.200 C 364.229 55.200,363.730 55.636,363.230 56.168 M331.000 56.681 C 331.220 56.908,332.300 57.597,333.400 58.213 C 334.500 58.828,335.220 59.146,335.000 58.919 C 334.780 58.692,333.700 58.003,332.600 57.387 C 331.500 56.772,330.780 56.454,331.000 56.681 M365.500 57.829 C 364.005 58.640,364.096 58.978,365.600 58.200 C 366.260 57.859,366.800 57.494,366.800 57.390 C 366.800 57.132,366.757 57.147,365.500 57.829 M318.800 58.776 C 318.800 59.203,318.963 59.654,319.163 59.777 C 319.362 59.900,319.423 59.610,319.298 59.133 C 319.116 58.436,319.206 58.317,319.756 58.528 C 320.163 58.684,320.342 58.630,320.197 58.395 C 319.770 57.705,318.800 57.969,318.800 58.776 M320.800 58.979 C 320.800 59.089,321.340 59.459,322.000 59.800 C 322.660 60.141,323.200 60.331,323.200 60.221 C 323.200 60.111,322.660 59.741,322.000 59.400 C 321.340 59.059,320.800 58.869,320.800 58.979 M323.800 60.684 C 324.020 60.909,325.460 61.775,327.000 62.609 C 328.540 63.443,329.620 63.941,329.400 63.716 C 329.180 63.491,327.740 62.625,326.200 61.791 C 324.660 60.957,323.580 60.459,323.800 60.684 M346.307 61.090 C 347.026 61.179,348.106 61.177,348.707 61.086 C 349.308 60.995,348.720 60.922,347.400 60.924 C 346.080 60.926,345.588 61.001,346.307 61.090 M339.200 61.379 C 339.200 61.489,339.740 61.859,340.400 62.200 C 341.060 62.541,341.600 62.731,341.600 62.621 C 341.600 62.511,341.060 62.141,340.400 61.800 C 339.740 61.459,339.200 61.269,339.200 61.379 M358.300 61.829 C 356.805 62.640,356.896 62.978,358.400 62.200 C 359.060 61.859,359.600 61.494,359.600 61.390 C 359.600 61.132,359.557 61.147,358.300 61.829 M322.000 63.600 C 322.697 64.480,323.357 65.200,323.467 65.200 C 323.577 65.200,323.097 64.480,322.400 63.600 C 321.703 62.720,321.043 62.000,320.933 62.000 C 320.823 62.000,321.303 62.720,322.000 63.600 M330.200 64.283 C 330.744 64.841,336.303 67.835,335.800 67.299 C 335.580 67.065,334.140 66.198,332.600 65.373 C 331.060 64.548,329.980 64.058,330.200 64.283 M345.600 64.984 C 345.600 65.094,346.320 65.551,347.200 66.000 C 348.080 66.449,348.800 66.726,348.800 66.616 C 348.800 66.506,348.080 66.049,347.200 65.600 C 346.320 65.151,345.600 64.874,345.600 64.984 M351.100 65.829 C 349.605 66.640,349.696 66.978,351.200 66.200 C 351.860 65.859,352.400 65.494,352.400 65.390 C 352.400 65.132,352.357 65.147,351.100 65.829 M365.762 65.662 C 365.576 65.962,365.653 66.014,365.983 65.811 C 366.278 65.628,366.635 65.728,366.839 66.049 C 367.115 66.485,367.189 66.454,367.194 65.900 C 367.201 65.116,366.202 64.949,365.762 65.662 M363.900 66.629 C 362.405 67.440,362.496 67.778,364.000 67.000 C 364.660 66.659,365.200 66.294,365.200 66.190 C 365.200 65.932,365.157 65.947,363.900 66.629 M337.400 68.291 C 337.620 68.523,338.880 69.301,340.200 70.021 C 341.520 70.741,342.420 71.141,342.200 70.909 C 341.980 70.677,340.720 69.899,339.400 69.179 C 338.080 68.459,337.180 68.059,337.400 68.291 M358.500 69.642 C 357.345 70.315,356.400 70.958,356.400 71.071 C 356.400 71.293,359.957 69.315,360.580 68.747 C 361.258 68.128,360.642 68.393,358.500 69.642 M366.599 69.202 C 366.460 69.643,365.862 70.265,365.273 70.586 C 364.683 70.906,364.433 71.175,364.718 71.184 C 365.331 71.203,367.200 69.421,367.200 68.818 C 367.200 68.133,366.872 68.342,366.599 69.202 M373.631 69.836 C 372.954 70.405,372.405 71.080,372.412 71.336 C 372.419 71.591,372.615 71.473,372.847 71.073 C 373.080 70.673,373.839 69.998,374.535 69.574 C 375.231 69.150,375.589 68.802,375.331 68.801 C 375.073 68.801,374.308 69.266,373.631 69.836 M376.986 69.340 C 377.574 69.771,377.673 70.196,377.473 71.440 C 377.303 72.502,377.345 72.809,377.605 72.400 C 378.440 71.090,377.828 68.800,376.644 68.800 C 376.425 68.800,376.579 69.043,376.986 69.340 M361.629 72.254 C 361.173 72.834,360.810 73.689,360.823 74.154 C 360.838 74.741,360.991 74.575,361.323 73.610 C 361.585 72.845,362.249 71.994,362.800 71.716 C 363.483 71.372,363.588 71.210,363.129 71.206 C 362.760 71.203,362.085 71.674,361.629 72.254 M327.062 72.331 C 325.770 73.759,326.679 77.245,328.323 77.168 C 328.870 77.143,328.885 77.096,328.400 76.922 C 326.788 76.346,326.243 73.678,327.462 72.331 C 327.826 71.929,328.034 71.600,327.924 71.600 C 327.814 71.600,327.426 71.929,327.062 72.331 M344.176 72.181 C 344.604 72.521,345.092 72.800,345.261 72.800 C 345.431 72.800,345.629 74.465,345.702 76.500 L 345.834 80.200 345.917 76.510 L 346.000 72.821 344.700 72.191 C 343.552 71.635,343.491 71.634,344.176 72.181 M325.364 73.883 C 325.475 75.882,327.027 78.800,327.981 78.800 C 328.168 78.800,327.804 78.247,327.173 77.571 C 326.542 76.896,325.933 75.771,325.821 75.071 C 325.351 72.160,325.255 71.908,325.364 73.883 M337.554 73.936 C 337.999 74.560,338.679 75.325,339.065 75.636 C 339.452 75.946,339.160 75.435,338.417 74.500 C 336.891 72.580,336.325 72.210,337.554 73.936 M318.891 81.100 L 318.981 89.000 319.100 81.482 C 319.174 76.776,319.362 74.053,319.604 74.203 C 319.821 74.337,319.886 74.169,319.753 73.821 C 319.044 71.973,318.809 73.957,318.891 81.100 M364.962 75.300 L 364.200 76.200 365.075 75.461 C 366.388 74.351,366.800 74.959,366.800 78.005 L 366.800 80.763 365.000 81.559 C 364.010 81.997,363.200 82.446,363.200 82.558 C 363.200 82.670,363.965 82.417,364.900 81.997 L 366.600 81.233 366.833 83.517 L 367.066 85.800 367.133 83.520 C 367.182 81.838,367.384 81.122,367.900 80.790 C 368.567 80.361,368.567 80.350,367.900 80.557 C 367.281 80.750,367.200 80.462,367.200 78.067 C 367.200 74.536,366.423 73.575,364.962 75.300 M329.762 76.100 C 329.006 76.992,329.007 76.994,329.800 76.352 C 330.240 75.996,330.870 75.605,331.200 75.484 C 331.709 75.297,331.704 75.258,331.162 75.232 C 330.811 75.214,330.181 75.605,329.762 76.100 M333.900 75.909 C 334.285 76.298,334.920 77.063,335.312 77.609 L 336.023 78.600 335.560 77.600 C 334.998 76.387,333.999 75.200,333.538 75.200 C 333.352 75.200,333.515 75.519,333.900 75.909 M332.435 76.500 C 332.528 76.555,333.230 77.140,333.996 77.800 C 335.177 78.819,335.268 78.849,334.594 78.000 C 333.676 76.843,333.149 76.415,332.633 76.406 C 332.432 76.403,332.343 76.445,332.435 76.500 M361.376 76.978 C 362.266 77.690,363.043 77.778,363.397 77.205 C 363.535 76.982,363.383 76.908,363.052 77.035 C 362.728 77.160,362.043 77.058,361.531 76.809 C 360.643 76.377,360.636 76.385,361.376 76.978 M330.041 77.834 C 329.293 78.365,328.853 78.800,329.063 78.800 C 329.273 78.800,330.055 78.350,330.800 77.800 C 332.535 76.520,331.847 76.551,330.041 77.834 M340.000 76.925 C 340.000 76.994,340.585 77.579,341.300 78.225 L 342.600 79.400 341.425 78.100 C 340.330 76.888,340.000 76.616,340.000 76.925 M323.125 77.486 C 323.633 77.583,324.398 78.233,324.823 78.931 C 325.249 79.629,325.598 79.999,325.599 79.754 C 325.602 78.852,323.932 77.201,323.071 77.254 C 322.234 77.307,322.236 77.316,323.125 77.486 M336.882 80.234 C 337.387 81.133,338.123 82.303,338.518 82.834 C 338.912 83.365,338.822 83.065,338.318 82.166 C 337.813 81.267,337.077 80.097,336.682 79.566 C 336.288 79.035,336.378 79.335,336.882 80.234 M326.373 81.130 C 327.280 81.861,327.294 81.924,326.573 82.073 C 325.872 82.218,325.883 82.255,326.701 82.479 C 327.291 82.641,327.510 82.577,327.335 82.295 C 327.162 82.015,327.336 81.958,327.834 82.133 C 328.791 82.469,327.552 81.415,326.200 80.744 C 325.630 80.461,325.680 80.571,326.373 81.130 M337.750 83.400 C 338.074 84.060,338.631 84.960,338.989 85.400 C 339.597 86.148,339.601 86.122,339.050 85.000 C 338.726 84.340,338.169 83.440,337.811 83.000 C 337.203 82.252,337.199 82.278,337.750 83.400 M361.627 83.771 C 361.125 84.306,360.809 84.981,360.926 85.271 C 361.089 85.682,361.144 85.671,361.168 85.226 C 361.186 84.910,361.591 84.235,362.070 83.726 C 362.548 83.217,362.849 82.800,362.739 82.800 C 362.629 82.800,362.129 83.237,361.627 83.771 M336.000 86.424 C 336.000 86.657,336.168 86.744,336.373 86.617 C 336.578 86.490,337.028 86.790,337.373 87.282 C 338.191 88.451,338.176 89.044,337.346 88.355 C 336.986 88.057,337.272 88.755,337.980 89.906 C 338.689 91.058,339.358 92.000,339.467 92.000 C 339.576 92.000,339.270 91.361,338.787 90.579 C 338.304 89.797,337.999 89.068,338.109 88.958 C 338.219 88.848,338.704 89.397,339.187 90.179 C 339.670 90.961,340.161 91.600,340.279 91.600 C 340.396 91.600,340.237 91.195,339.924 90.700 C 339.612 90.205,338.826 88.945,338.178 87.901 C 337.092 86.150,336.000 85.410,336.000 86.424 M340.886 86.800 C 341.206 87.350,341.965 88.655,342.572 89.700 C 343.179 90.745,343.759 91.600,343.861 91.600 C 344.132 91.600,341.926 87.751,341.053 86.699 L 340.305 85.800 340.886 86.800 M360.996 87.337 C 361.691 89.803,361.678 90.101,360.822 91.332 L 359.942 92.600 360.971 91.478 C 362.138 90.205,362.214 89.511,361.376 87.800 C 361.053 87.140,360.881 86.932,360.996 87.337 M333.790 88.015 C 333.636 88.265,333.721 88.679,333.979 88.935 C 334.336 89.290,334.387 89.210,334.192 88.600 C 334.002 88.006,334.211 88.109,335.003 89.000 C 335.687 89.768,335.922 89.900,335.657 89.367 C 335.035 88.113,334.133 87.461,333.790 88.015 M353.800 89.050 C 353.081 89.662,352.934 89.905,353.433 89.657 C 354.166 89.293,355.541 87.976,355.149 88.014 C 355.067 88.022,354.460 88.488,353.800 89.050 M342.091 90.666 C 342.811 92.022,343.458 93.075,343.528 93.005 C 343.704 92.829,342.205 89.978,341.422 89.000 C 341.070 88.560,341.371 89.310,342.091 90.666 M356.054 91.220 C 356.000 92.249,356.625 93.200,357.356 93.200 C 357.575 93.200,357.461 92.975,357.105 92.700 C 356.748 92.425,356.378 91.750,356.283 91.200 L 356.109 90.200 356.054 91.220 M345.081 91.918 C 345.362 92.096,345.620 93.465,345.701 95.212 L 345.841 98.200 345.921 94.900 C 345.991 91.992,345.917 91.601,345.300 91.606 C 344.824 91.610,344.754 91.710,345.081 91.918 M341.165 93.101 C 342.248 94.682,343.426 95.405,343.838 94.739 C 344.018 94.447,343.948 94.385,343.646 94.571 C 343.357 94.750,342.598 94.262,341.721 93.333 C 340.380 91.913,340.339 91.896,341.165 93.101 M337.223 93.428 C 337.480 93.738,337.862 93.885,338.072 93.756 C 338.538 93.468,338.192 93.075,337.366 92.954 C 336.884 92.883,336.854 92.983,337.223 93.428 M332.962 93.662 C 332.781 93.954,332.852 94.015,333.156 93.827 C 333.419 93.664,333.915 93.764,334.258 94.048 C 334.998 94.663,336.102 94.888,335.774 94.358 C 335.648 94.154,335.398 94.078,335.218 94.189 C 335.038 94.300,334.668 94.123,334.396 93.796 C 333.803 93.081,333.347 93.038,332.962 93.662 M366.901 94.600 C 366.905 95.480,366.987 95.793,367.083 95.295 C 367.179 94.798,367.175 94.078,367.075 93.695 C 366.975 93.313,366.896 93.720,366.901 94.600 M142.994 210.400 C 142.994 238.010,143.042 249.305,143.100 235.500 C 143.158 221.695,143.158 199.105,143.100 185.300 C 143.042 171.495,142.994 182.790,142.994 210.400 M197.633 166.921 C 198.774 167.749,200.000 168.346,200.000 168.073 C 200.000 167.884,199.542 167.520,198.981 167.264 C 198.047 166.838,197.235 166.632,197.633 166.921 M210.367 175.337 C 210.940 176.050,212.400 176.987,212.400 176.641 C 212.400 176.539,211.815 176.044,211.100 175.543 C 210.178 174.896,209.965 174.836,210.367 175.337 M215.513 180.233 C 215.757 180.691,216.266 181.321,216.644 181.633 C 217.269 182.149,217.291 182.125,216.887 181.367 C 216.643 180.909,216.134 180.279,215.756 179.967 C 215.131 179.451,215.109 179.475,215.513 180.233 M218.793 184.787 C 219.373 185.870,219.965 186.151,219.723 185.228 C 219.612 184.803,219.265 184.357,218.951 184.237 C 218.501 184.064,218.468 184.179,218.793 184.787 M214.323 243.100 C 213.560 243.989,213.095 244.800,213.349 244.800 C 213.457 244.800,213.930 244.260,214.400 243.600 C 215.332 242.291,215.284 241.981,214.323 243.100 M209.992 247.010 C 209.219 247.941,209.771 248.117,210.598 247.202 C 210.997 246.761,211.138 246.400,210.911 246.400 C 210.684 246.400,210.270 246.674,209.992 247.010 M185.400 259.600 C 185.264 259.820,185.423 260.000,185.753 260.000 C 186.083 260.000,186.464 259.820,186.600 259.600 C 186.736 259.380,186.577 259.200,186.247 259.200 C 185.917 259.200,185.536 259.380,185.400 259.600 M182.200 260.000 C 182.064 260.220,182.323 260.400,182.776 260.400 C 183.229 260.400,183.600 260.220,183.600 260.000 C 183.600 259.780,183.341 259.600,183.024 259.600 C 182.707 259.600,182.336 259.780,182.200 260.000 " stroke="none" fill="#6385ac" fill-rule="evenodd"></path></g></svg>