<?xml version="1.0" encoding="UTF-8"?>
<svg id="Calque_1" xmlns="http://www.w3.org/2000/svg" version="1.1" viewBox="0 0 512 512">
  <!-- Generator: Adobe Illustrator 29.4.0, SVG Export Plug-In . SVG Version: 2.1.0 Build 152)  -->
  <defs>
    <style>
      .st0 {
        fill: #094884;
      }
    </style>
  </defs>
  <path class="st0" d="M138.77,43.12c-.46.74-29.01,47.49-63.51,103.9L12.55,249.55l60.88,108.02,60.82,107.96h243.5l60.82-106.25,60.88-106.3-61.73-105.39-61.68-105.45-118.2-.17-118.26-.11-.8,1.26ZM397.32,115.79c17.91,30.95,34.5,59.73,36.96,63.97l4.46,7.72-23.29.17c-19.28.11-23.4,0-23.86-.69-.29-.4-11.73-20.08-25.4-43.77l-24.89-42.97h-102.3l1.14,1.83c1.89,3.15,40.68,70.49,57.67,100.12l15.96,27.92h148.36l5.78,9.78c3.2,5.38,5.78,10.01,5.78,10.3,0,.69-19.34,34.44-71.4,124.67l-37.13,64.37-97.66.17c-78.1.11-97.66,0-97.44-.57.11-.4,16.88-29.06,37.19-63.68l36.96-62.94,22.89-.17c12.64-.06,22.94,0,22.94.11s-11.04,19.62-24.49,43.31l-24.49,43.14,25.8.4c14.13.23,36.73.4,50.23.29l24.49-.11,36.85-64.59,36.9-64.54-62.19.17-62.19.23-7.95-14.02c-4.41-7.72-16.76-29.24-27.46-47.77-34.21-59.22-85.08-148.07-85.08-148.53,0-.29,43.77-.51,97.21-.51h97.21l32.44,56.18ZM166.52,97.08c11.67,19.8,21.28,36.33,21.28,36.67,0,.86-22.54,40.28-23.06,40.28-.23,0-4.63-7.32-9.73-16.31-5.15-8.98-9.55-16.25-9.78-16.19-.57.23-21.46,35.99-45.54,78.15l-17.39,30.44,30.72,53.09c16.94,29.18,31.07,53.5,31.41,54.01.57.86,2.98-2.98,16.31-26.03,8.64-14.82,22.71-39.08,31.3-53.78,8.58-14.76,15.62-27.06,15.62-27.35s-3.09-6.06-6.87-12.76c-3.78-6.75-7.15-12.93-7.5-13.67-.57-1.32.34-3.2,10.7-21.23,6.18-10.87,11.44-19.8,11.67-19.8.57,0,38.39,67,38.22,67.74-.4,1.43-109.22,189.32-109.51,188.98-.06-.06-24.49-42.68-54.24-94.69l-54.12-94.57,10.41-18.14c5.66-9.96,14.65-25.63,19.91-34.73,5.26-9.15,15.16-26.49,22.03-38.62,31.58-56.07,56.01-98.41,56.41-98.01.23.23,10.01,16.65,21.74,36.5Z"/>
</svg>