<?xml version="1.0" encoding="UTF-8"?>
<svg id="Calque_1" xmlns="http://www.w3.org/2000/svg" version="1.1" viewBox="0 0 512 512">
  <!-- Generator: Adobe Illustrator 29.4.0, SVG Export Plug-In . SVG Version: 2.1.0 Build 152)  -->
  <defs>
    <style>
      .st0 {
        display: none;
        fill: #fff;
      }
    </style>
  </defs>
  <path class="st0" d="M249.25,471.4H40.7v-197.66c.69.42.74,1.09.82,1.81,11.32,103.32,87.09,182.51,191,194.64l16.74,1.21h-.01Z"/>
  <path class="st0" d="M470.3,266.89v204.51h-208.14c.42-.67,1.53-.4,2.21-.41,105.58-1.33,198.7-92.33,205.52-197.05.15-2.28-.44-4.95.41-7.06h0Z"/>
  <path class="st0" d="M233.52,41.8l-20.66,3.34C117.7,64.92,52.05,140.86,41.52,236.84c-.08.71-.13,1.39-.82,1.81V41.8h192.82Z"/>
  <path class="st0" d="M277.48,41.8h192.82v203.71l-1.67-18.3c-12.12-91.05-82.28-165.38-172.51-182.46l-18.63-2.95h0Z"/>
  <path class="st0" d="M248.36,136.71c44.77-2.69,84.48,22.56,89.58,69.11,6.65,60.74-36.17,100.58-96.11,93.28-95.25-11.59-93.51-156.38,6.52-162.39h0ZM252.78,190.75c-18.09,2.48-19.33,36.07-11.36,48.27,5.3,8.11,13.94,10.9,22.48,5.61,16.25-10.06,13.59-57.27-11.12-53.88Z"/>
  <polygon class="st0" points="316.21 318.52 255.43 375.34 195.19 318.52 316.21 318.52"/>
  <path d="M255.25,41.67c-118.63,0-214.81,96.36-214.81,215.21,0,107.9,79.33,196.99,182.7,212.55v-155.51h-53.14v-56.57h53.14v-37.64c0-62.32,30.31-89.69,82.01-89.69,24.76,0,37.85,1.84,44.05,2.68v49.38h-35.27c-21.95,0-29.61,20.85-29.61,44.34v30.92h64.32l-8.73,56.57h-55.6v155.97c104.84-14.25,185.73-104.07,185.73-213.01,0-118.86-96.17-215.21-214.81-215.21Z"/>
</svg>