<?xml version="1.0" encoding="UTF-8"?>
<svg id="Calque_1" xmlns="http://www.w3.org/2000/svg" version="1.1" viewBox="0 0 512 512">
  <!-- Generator: Adobe Illustrator 29.4.0, SVG Export Plug-In . SVG Version: 2.1.0 Build 152)  -->
  <defs>
    <style>
      .st0 {
        display: none;
        fill: #fff;
      }
    </style>
  </defs>
  <path d="M277.24,40.29l18.63,2.95c90.24,17.08,160.39,91.41,172.51,182.46l1.67,18.3v21.38c-.85,2.11-.26,4.78-.41,7.06-6.83,104.72-99.95,195.72-205.52,197.05-.68,0-1.79-.26-2.21.41h-12.91l-16.74-1.21c-103.9-12.12-179.67-91.31-191-194.64-.08-.71-.13-1.39-.82-1.81v-35.09c.69-.42.74-1.09.82-1.81C51.79,139.35,117.45,63.41,212.6,43.64l20.66-3.34c14.54-1.61,29.2-1.59,43.97,0h.01ZM248.12,135.2c-100.03,6.01-101.77,150.8-6.52,162.39,59.93,7.29,102.76-32.55,96.11-93.28-5.1-46.55-44.81-71.8-89.58-69.11h-.01ZM315.97,317.01h-121.01l60.23,56.82,60.78-56.82h0Z"/>
  <path class="st0" d="M249.25,471.4H40.7v-197.66c.69.42.74,1.09.82,1.81,11.32,103.32,87.09,182.51,191,194.64l16.74,1.21h-.01Z"/>
  <path class="st0" d="M470.3,266.89v204.51h-208.14c.42-.67,1.53-.4,2.21-.41,105.58-1.33,198.7-92.33,205.52-197.05.15-2.28-.44-4.95.41-7.06h0Z"/>
  <path class="st0" d="M233.52,41.8l-20.66,3.34C117.7,64.92,52.05,140.86,41.52,236.84c-.08.71-.13,1.39-.82,1.81V41.8h192.82Z"/>
  <path class="st0" d="M277.48,41.8h192.82v203.71l-1.67-18.3c-12.12-91.05-82.28-165.38-172.51-182.46l-18.63-2.95h0Z"/>
  <path class="st0" d="M248.36,136.71c44.77-2.69,84.48,22.56,89.58,69.11,6.65,60.74-36.17,100.58-96.11,93.28-95.25-11.59-93.51-156.38,6.52-162.39h0ZM252.78,190.75c-18.09,2.48-19.33,36.07-11.36,48.27,5.3,8.11,13.94,10.9,22.48,5.61,16.25-10.06,13.59-57.27-11.12-53.88Z"/>
  <polygon class="st0" points="316.21 318.52 255.43 375.34 195.19 318.52 316.21 318.52"/>
  <path d="M252.54,189.24c24.71-3.39,27.37,43.81,11.12,53.88-8.55,5.29-17.19,2.5-22.48-5.61-7.97-12.2-6.73-45.78,11.36-48.27Z"/>
</svg>