<?xml version="1.0" encoding="UTF-8"?>
<svg id="Calque_1" xmlns="http://www.w3.org/2000/svg" version="1.1" viewBox="0 0 512 512">
  <!-- Generator: Adobe Illustrator 29.4.0, SVG Export Plug-In . SVG Version: 2.1.0 Build 152)  -->
  <defs>
    <style>
      .st0 {
        display: none;
        fill: #fff;
      }
    </style>
  </defs>
  <path class="st0" d="M249.25,471.4H40.7v-197.66c.69.42.74,1.09.82,1.81,11.32,103.32,87.09,182.51,191,194.64l16.74,1.21h-.01Z"/>
  <path class="st0" d="M470.3,266.89v204.51h-208.14c.42-.67,1.53-.4,2.21-.41,105.58-1.33,198.7-92.33,205.52-197.05.15-2.28-.44-4.95.41-7.06h0Z"/>
  <path class="st0" d="M233.52,41.8l-20.66,3.34C117.7,64.92,52.05,140.86,41.52,236.84c-.08.71-.13,1.39-.82,1.81V41.8h192.82Z"/>
  <path class="st0" d="M277.48,41.8h192.82v203.71l-1.67-18.3c-12.12-91.05-82.28-165.38-172.51-182.46l-18.63-2.95h0Z"/>
  <path class="st0" d="M248.36,136.71c44.77-2.69,84.48,22.56,89.58,69.11,6.65,60.74-36.17,100.58-96.11,93.28-95.25-11.59-93.51-156.38,6.52-162.39h0ZM252.78,190.75c-18.09,2.48-19.33,36.07-11.36,48.27,5.3,8.11,13.94,10.9,22.48,5.61,16.25-10.06,13.59-57.27-11.12-53.88Z"/>
  <polygon class="st0" points="316.21 318.52 255.43 375.34 195.19 318.52 316.21 318.52"/>
  <path d="M255.25,40.29c-118.44,0-214.81,96.35-214.81,214.81s96.36,214.81,214.81,214.81,214.81-96.35,214.81-214.81S373.69,40.29,255.25,40.29ZM189.87,348.48h-37.36v-140.09h37.36v140.09ZM171.19,180.38c-10.32,0-18.68-8.36-18.68-18.68s8.36-18.68,18.68-18.68,18.68,8.36,18.68,18.68-8.36,18.68-18.68,18.68ZM367.32,348.48h-37.36v-70.05c0-17.98-14.71-32.69-32.69-32.69s-32.69,14.71-32.69,32.69v70.05h-37.36v-140.09h37.36v16.96c10.91-10.48,25.7-16.96,42.03-16.96,33.53,0,60.71,27.18,60.71,60.71v79.38Z"/>
</svg>